<?xml version="1.0" encoding="utf-8"?>
<!-- Generator: Adobe Illustrator 27.5.0, SVG Export Plug-In . SVG Version: 6.00 Build 0)  -->
<svg version="1.1" id="Calque_1" xmlns="http://www.w3.org/2000/svg" xmlns:xlink="http://www.w3.org/1999/xlink" x="0px" y="0px"
	 viewBox="0 0 538.6 170.1" style="enable-background:new 0 0 538.6 170.1;" xml:space="preserve">
<style type="text/css">
	.st0{display:none;}
	.st1{display:inline;}
	.st2{display:inline;fill:none;}
	.st3{display:inline;fill:#4B6FB5;}
	.st4{display:inline;fill:#FFFFFF;}
	.st5{font-family:'Poppins-ExtraBold';}
	.st6{font-size:72px;}
	.st7{fill:#98B7E1;}
	.st8{fill:#233959;}
	.st9{fill:#FFFFFF;}
	.st10{fill:#FFFFFF;stroke:#233959;stroke-width:0.25;stroke-miterlimit:10;}
	.st11{display:inline;fill:#C13A8D;}
	.st12{display:inline;fill:#233959;}
	.st13{opacity:0.35;enable-background:new    ;}
	.st14{fill:#010202;}
	.st15{opacity:0.35;}
	.st16{fill:#7F7F80;}
	.st17{opacity:0.35;fill:#010202;enable-background:new    ;}
	.st18{display:inline;opacity:0.35;fill:#010202;enable-background:new    ;}
	.st19{filter:url(#Adobe_OpacityMaskFilter);}
	.st20{opacity:0.35;mask:url(#SVGID_00000013166696154982136370000017754813554378033820_);enable-background:new    ;}
	.st21{display:inline;opacity:0.35;}
	.st22{display:inline;filter:url(#Adobe_OpacityMaskFilter_00000138542759795984342630000001954637374847395501_);}
	
		.st23{display:inline;opacity:0.35;mask:url(#SVGID_00000123436500258656500540000017603974392499558545_);fill:#010202;enable-background:new    ;}
</style>
<g id="premier_jet">
	<g class="st0">
		<path class="st1" d="M197.6,377.7H141c-3.1,0-5.7-2.5-5.7-5.7v-61.3c0-3.1,2.5-5.7,5.7-5.7h56.6c3.1,0,5.7,2.5,5.7,5.7V372
			C203.3,375.2,200.8,377.7,197.6,377.7z"/>
		<rect x="133.9" y="313.9" class="st2" width="67.4" height="55"/>
		<text transform="matrix(1 0 0 1 133.9074 367.1316)" class="st5 st6" style="display:inline;fill:#777777;">M </text>
		<rect x="138" y="313.9" class="st2" width="67.4" height="55"/>
		<text transform="matrix(1 0 0 1 138.0153 367.1316)" class="st4 st5 st6">M </text>
		<g class="st1">
			<g>
				<path d="M207.7,347.3c0-2.7,2.2-4.9,5.5-4.9s5.5,2.2,5.5,4.9c0,2.7-2.2,4.8-5.5,4.8C209.8,352.1,207.7,350,207.7,347.3z
					 M208.4,354.6h9.4v26.9h-9.4V354.6z"/>
				<path d="M222.4,347.3c0-2.7,2.2-4.9,5.5-4.9s5.5,2.2,5.5,4.9c0,2.7-2.2,4.8-5.5,4.8C224.6,352.1,222.4,350,222.4,347.3z
					 M223.2,354.6h9.4v26.9h-9.4V354.6z"/>
				<path d="M274.7,367c0-2.9-1.8-4.6-4.5-4.6s-4.5,1.6-4.5,4.6v14.4h-9.4V367c0-2.9-1.7-4.6-4.4-4.6c-2.8,0-4.5,1.6-4.5,4.6v14.4
					H238v-26.9h9.4v3.6c1.5-2.2,4.2-3.8,7.8-3.8c4,0,7.2,1.8,9,4.9c1.8-2.7,5-4.9,9-4.9c6.8,0,10.9,4.4,10.9,11.5v15.7h-9.4V367z"/>
				<path d="M288.8,356l-1.1-2.3c2.8-1.7,6-5,6.9-9.2l-0.3,4.5l-3.8-2.8c-1.8-1.3-2.3-2.8-2.3-4.4c0-2.7,2.1-4.5,4.6-4.5
					c1.8,0,3,0.8,4,1.6c0.9,1.5,1.3,3.3,1.3,5C298,349.2,294.2,353.6,288.8,356z"/>
				<path d="M313.6,381.8c-7.5,0-12.5-4-12.9-9.4h9.1c0.2,1.8,1.7,2.7,3.7,2.7c1.6,0,2.5-0.8,2.5-1.7c0-3.9-14.3-0.7-14.3-10.6
					c0-4.7,3.9-8.6,11.2-8.6c7.3,0,11.2,4.1,11.8,9.4h-8.5c-0.3-1.7-1.5-2.7-3.5-2.7c-1.5,0-2.4,0.6-2.4,1.6c0,3.8,14.4,0.8,14.4,11
					C324.8,378.3,320.6,381.8,313.6,381.8z"/>
			</g>
		</g>
		<path class="st1" d="M197.6,493.6H141c-3.1,0-5.7-2.5-5.7-5.7v-61.3c0-3.1,2.5-5.7,5.7-5.7h56.6c3.1,0,5.7,2.5,5.7,5.7V488
			C203.3,491.1,200.8,493.6,197.6,493.6z"/>
		<rect x="133.9" y="429.8" class="st2" width="67.4" height="55"/>
		<text transform="matrix(1 0 0 1 133.9074 483.0659)" class="st5 st6" style="display:inline;fill:#777777;">M </text>
		<rect x="138" y="429.8" class="st2" width="67.4" height="55"/>
		<text transform="matrix(1 0 0 1 138.0153 483.0659)" class="st4 st5 st6">M </text>
		<g class="st1">
			<g>
				<path d="M207.3,448.8c0-2.7,2.2-4.9,5.5-4.9s5.5,2.2,5.5,4.9c0,2.7-2.2,4.8-5.5,4.8C209.5,453.6,207.3,451.5,207.3,448.8z
					 M208.1,456.1h9.4V483h-9.4V456.1z"/>
				<path d="M222.1,448.8c0-2.7,2.2-4.9,5.5-4.9s5.5,2.2,5.5,4.9c0,2.7-2.2,4.8-5.5,4.8C224.3,453.6,222.1,451.5,222.1,448.8z
					 M222.9,456.1h9.4V483h-9.4V456.1z"/>
				<path d="M274.3,468.6c0-2.9-1.8-4.6-4.5-4.6s-4.5,1.6-4.5,4.6V483H256v-14.4c0-2.9-1.7-4.6-4.4-4.6c-2.8,0-4.5,1.6-4.5,4.6V483
					h-9.4v-26.9h9.4v3.6c1.5-2.2,4.2-3.8,7.8-3.8c4,0,7.2,1.8,9,4.9c1.8-2.7,5-4.9,9-4.9c6.8,0,10.9,4.4,10.9,11.5v15.7h-9.4v-14.5
					H274.3z"/>
				<path d="M288.5,457.6l-1.1-2.3c2.8-1.7,6-5,6.9-9.2l-0.3,4.5l-3.8-2.8c-1.8-1.3-2.3-2.8-2.3-4.4c0-2.7,2.1-4.5,4.6-4.5
					c1.8,0,3,0.8,4,1.6c0.9,1.5,1.3,3.3,1.3,5C297.7,450.7,293.9,455.2,288.5,457.6z"/>
				<path d="M313.3,483.4c-7.5,0-12.5-4-12.9-9.4h9.1c0.2,1.8,1.7,2.7,3.7,2.7c1.6,0,2.5-0.8,2.5-1.7c0-3.9-14.3-0.7-14.3-10.6
					c0-4.7,3.9-8.6,11.2-8.6c7.3,0,11.2,4.1,11.8,9.4H316c-0.3-1.7-1.5-2.7-3.5-2.7c-1.5,0-2.4,0.6-2.4,1.6c0,3.8,14.4,0.8,14.4,11
					C324.5,479.8,320.3,483.4,313.3,483.4z"/>
			</g>
		</g>
		<rect y="0" class="st3" width="521.2" height="159.3"/>
		<path class="st1" d="M122.9,58.9H66.3c-3.1,0-5.7,2.5-5.7,5.7v61.3c0,3.1,2.5,5.7,5.7,5.7h56.6c3.1,0,5.7-2.5,5.7-5.7V64.6
			C128.6,61.4,126.1,58.9,122.9,58.9z M122.5,121h-14.1V93l-9.6,28H87l-9.7-28.2V121H63.2V70.2h17.1l12.8,33l12.5-33h17V121H122.5z"
			/>
		<rect x="63.3" y="67.7" class="st2" width="67.4" height="55"/>
		<text transform="matrix(1 0 0 1 63.3105 121.013)" class="st4 st5 st6">M </text>
		<g class="st1">
			<g>
				<path class="st7" d="M132.6,97.4c0-2.7,2.2-4.9,5.5-4.9s5.5,2.2,5.5,4.9c0,2.7-2.2,4.8-5.5,4.8
					C134.8,102.2,132.6,100,132.6,97.4z M133.4,104.7h9.4v26.9h-9.4V104.7z"/>
				<path class="st7" d="M147.4,97.4c0-2.7,2.2-4.9,5.5-4.9s5.5,2.2,5.5,4.9c0,2.7-2.2,4.8-5.5,4.8
					C149.6,102.2,147.4,100,147.4,97.4z M148.2,104.7h9.4v26.9h-9.4V104.7z"/>
				<path class="st7" d="M199.6,117.1c0-2.9-1.8-4.6-4.5-4.6s-4.5,1.6-4.5,4.6v14.4h-9.4v-14.4c0-2.9-1.7-4.6-4.4-4.6
					c-2.8,0-4.5,1.6-4.5,4.6v14.4H163v-26.9h9.4v3.6c1.5-2.2,4.2-3.8,7.8-3.8c4,0,7.2,1.8,9,4.9c1.8-2.7,5-4.9,9-4.9
					c6.8,0,10.9,4.4,10.9,11.5v15.7h-9.4L199.6,117.1L199.6,117.1z"/>
				<path class="st7" d="M213.8,106.1l-1.1-2.3c2.8-1.7,6-5,6.9-9.2l-0.3,4.5l-3.8-2.8c-1.8-1.3-2.3-2.8-2.3-4.4
					c0-2.7,2.1-4.5,4.6-4.5c1.8,0,3,0.8,4,1.6c0.9,1.5,1.3,3.3,1.3,5C223,99.2,219.2,103.7,213.8,106.1z"/>
				<path class="st7" d="M238.6,131.9c-7.5,0-12.5-4-12.9-9.4h9.1c0.2,1.8,1.7,2.7,3.7,2.7c1.6,0,2.5-0.8,2.5-1.7
					c0-3.9-14.3-0.7-14.3-10.6c0-4.7,3.9-8.6,11.2-8.6s11.2,4.1,11.8,9.4h-8.5c-0.3-1.7-1.5-2.7-3.5-2.7c-1.5,0-2.4,0.6-2.4,1.6
					c0,3.8,14.4,0.8,14.4,11C249.8,128.4,245.6,131.9,238.6,131.9z"/>
			</g>
		</g>
		<rect y="187.1" class="st3" width="521.2" height="159.3"/>
		<path d="M122.9,246H66.3c-3.1,0-5.7,2.5-5.7,5.7V313c0,3.1,2.5,5.7,5.7,5.7h56.6c3.1,0,5.7-2.5,5.7-5.7v-61.3
			C128.6,248.5,126.1,246,122.9,246z M108.4,280.1l-9.6,28"/>
		<rect x="59.2" y="254.8" class="st2" width="67.4" height="55"/>
		<text transform="matrix(1 0 0 1 59.2026 308.1104)" class="st5 st6" style="display:inline;fill:#1D3058;">M </text>
		<rect x="63.3" y="254.8" class="st2" width="67.4" height="55"/>
		<text transform="matrix(1 0 0 1 63.3105 308.1104)" class="st4 st5 st6">M </text>
		<g class="st1">
			<g>
				<path class="st8" d="M132.6,284.5c0-2.7,2.2-4.9,5.5-4.9s5.5,2.2,5.5,4.9c0,2.7-2.2,4.8-5.5,4.8S132.6,287.1,132.6,284.5z
					 M133.4,291.7h9.4v26.9h-9.4V291.7z"/>
				<path class="st8" d="M147.4,284.5c0-2.7,2.2-4.9,5.5-4.9s5.5,2.2,5.5,4.9c0,2.7-2.2,4.8-5.5,4.8
					C149.6,289.3,147.4,287.1,147.4,284.5z M148.2,291.7h9.4v26.9h-9.4V291.7z"/>
				<path class="st8" d="M199.6,304.2c0-2.9-1.8-4.6-4.5-4.6s-4.5,1.6-4.5,4.6v14.4h-9.4v-14.4c0-2.9-1.7-4.6-4.4-4.6
					c-2.8,0-4.5,1.6-4.5,4.6v14.4H163v-26.9h9.4v3.6c1.5-2.2,4.2-3.8,7.8-3.8c4,0,7.2,1.8,9,4.9c1.8-2.7,5-4.9,9-4.9
					c6.8,0,10.9,4.4,10.9,11.5v15.7h-9.4L199.6,304.2L199.6,304.2z"/>
				<path class="st8" d="M213.8,293.2l-1.1-2.3c2.8-1.7,6-5,6.9-9.2l-0.3,4.5l-3.8-2.8c-1.8-1.3-2.3-2.8-2.3-4.4
					c0-2.7,2.1-4.5,4.6-4.5c1.8,0,3,0.8,4,1.6c0.9,1.5,1.3,3.3,1.3,5C223,286.3,219.2,290.8,213.8,293.2z"/>
				<path class="st8" d="M238.6,319c-7.5,0-12.5-4-12.9-9.4h9.1c0.2,1.8,1.7,2.7,3.7,2.7c1.6,0,2.5-0.8,2.5-1.7
					c0-3.9-14.3-0.7-14.3-10.6c0-4.7,3.9-8.6,11.2-8.6s11.2,4.1,11.8,9.4h-8.5c-0.3-1.7-1.5-2.7-3.5-2.7c-1.5,0-2.4,0.6-2.4,1.6
					c0,3.8,14.4,0.8,14.4,11C249.8,315.5,245.6,319,238.6,319z"/>
			</g>
		</g>
		<rect y="374.2" class="st3" width="521.2" height="159.3"/>
		<rect x="59.2" y="441.9" class="st2" width="67.4" height="55"/>
		<text transform="matrix(1 0 0 1 59.2026 495.2078)" class="st12 st5 st6">M </text>
		<rect x="63.3" y="441.9" class="st2" width="67.4" height="55"/>
		<text transform="matrix(1 0 0 1 63.3105 495.2078)" class="st4 st5 st6">M </text>
		<g class="st1">
			<path class="st8" d="M133.4,478.8h9.4v26.9h-9.4V478.8z"/>
			<path class="st9" d="M143.6,471.5c0,2.7-2.2,4.8-5.5,4.8c-3.4,0-5.5-2.1-5.5-4.8c0-2.7,2.2-4.9,5.5-4.9
				C141.5,466.6,143.6,468.8,143.6,471.5z"/>
			<path class="st8" d="M148.2,478.8v26.9h9.4v-26.9H148.2z"/>
			<path class="st9" d="M158.4,471.5c0,2.7-2.2,4.8-5.5,4.8c-3.4,0-5.5-2.1-5.5-4.8c0-2.7,2.2-4.9,5.5-4.9S158.4,468.8,158.4,471.5z
				"/>
			<path class="st8" d="M199.6,491.3c0-2.9-1.8-4.6-4.5-4.6s-4.5,1.6-4.5,4.6v14.4h-9.4v-14.4c0-2.9-1.7-4.6-4.4-4.6
				c-2.8,0-4.5,1.6-4.5,4.6v14.4H163v-26.9h9.4v3.6c1.5-2.2,4.2-3.8,7.8-3.8c4,0,7.2,1.8,9,4.9c1.8-2.7,5-4.9,9-4.9
				c6.8,0,10.9,4.4,10.9,11.5v15.7h-9.4L199.6,491.3L199.6,491.3z"/>
			<path class="st9" d="M213.8,480.3l-1.1-2.3c2.8-1.7,6-5,6.9-9.2l-0.3,4.5l-3.8-2.8c-1.8-1.3-2.3-2.8-2.3-4.4
				c0-2.7,2.1-4.5,4.6-4.5c1.8,0,3,0.8,4,1.6c0.9,1.5,1.3,3.3,1.3,5C223,473.4,219.2,477.9,213.8,480.3z"/>
			<path class="st8" d="M233.6,506.1c-7.5,0-12.5-4-12.9-9.4h9.1c0.2,1.8,1.7,2.7,3.7,2.7c1.6,0,2.5-0.8,2.5-1.7
				c0-3.9-14.3-0.7-14.3-10.6c0-4.7,3.9-8.6,11.2-8.6s11.2,4.1,11.8,9.4h-8.5c-0.3-1.7-1.5-2.7-3.5-2.7c-1.5,0-2.4,0.6-2.4,1.6
				c0,3.8,14.4,0.8,14.4,11C244.8,502.6,240.6,506.1,233.6,506.1z"/>
		</g>
		<rect y="604.9" class="st3" width="521.2" height="159.3"/>
		<rect x="59.2" y="634.2" class="st2" width="67.4" height="55"/>
		<text transform="matrix(1 0 0 1 59.2026 687.4844)" class="st12 st5 st6">M </text>
		<g class="st1">
			<g>
				<polygon class="st9" points="112.6,687.4 112.6,658.7 102.8,687.4 91.2,687.4 81.3,658.5 81.3,687.4 67.5,687.4 67.5,636.8 
					84.3,636.8 97.2,670 109.7,636.8 126.5,636.8 126.5,687.4 				"/>
				<path class="st8" d="M126.4,637v50.3h-13.6v-27.8V658l-0.5,1.4l-9.5,27.8H91.3l-9.6-28.1l-0.5-1.4v1.5v28H67.6V637h16.6
					l12.7,32.8l0.2,0.6l0.2-0.6l12.4-32.8H126.4 M126.6,636.7h-17l-12.5,33l-12.7-33H67.3v50.8h14.1v-28.2l9.6,28.2h11.8l9.6-28v28
					h14.1L126.6,636.7L126.6,636.7z"/>
			</g>
		</g>
		<g class="st1">
			<path class="st8" d="M133.4,671.1h9.4V698h-9.4V671.1z"/>
			<g>
				<path class="st9" d="M138.1,668.5c-3.2,0-5.4-1.9-5.4-4.7s2.2-4.8,5.4-4.8c3.1,0,5.3,2,5.3,4.8
					C143.5,666.5,141.2,668.5,138.1,668.5z"/>
				<path class="st8" d="M138.2,659.2c3,0,5.2,2,5.2,4.7s-2.1,4.5-5.2,4.5c-3.1,0-5.3-1.9-5.3-4.5
					C132.9,661.1,135,659.2,138.2,659.2 M138.2,658.9c-3.4,0-5.5,2.2-5.5,4.9s2.2,4.8,5.5,4.8s5.5-2.1,5.5-4.8
					C143.6,661.1,141.5,658.9,138.2,658.9L138.2,658.9z"/>
			</g>
			<path class="st8" d="M148.2,671.1V698h9.4v-26.9H148.2z"/>
			<g>
				<path class="st9" d="M152.9,668.5c-3.2,0-5.4-1.9-5.4-4.7s2.2-4.8,5.4-4.8c3.1,0,5.3,2,5.3,4.8
					C158.3,666.5,156,668.5,152.9,668.5z"/>
				<path class="st8" d="M152.9,659.2c3,0,5.2,2,5.2,4.7s-2.1,4.5-5.2,4.5c-3.1,0-5.3-1.9-5.3-4.5
					C147.7,661.1,149.8,659.2,152.9,659.2 M152.9,658.9c-3.4,0-5.5,2.2-5.5,4.9s2.2,4.8,5.5,4.8s5.5-2.1,5.5-4.8
					C158.4,661.1,156.2,658.9,152.9,658.9L152.9,658.9z"/>
			</g>
			<path class="st8" d="M199.6,683.6c0-2.9-1.8-4.6-4.5-4.6s-4.5,1.6-4.5,4.6V698h-9.4v-14.4c0-2.9-1.7-4.6-4.4-4.6
				c-2.8,0-4.5,1.6-4.5,4.6V698H163v-26.9h9.4v3.6c1.5-2.2,4.2-3.8,7.8-3.8c4,0,7.2,1.8,9,4.9c1.8-2.7,5-4.9,9-4.9
				c6.8,0,10.9,4.4,10.9,11.5v15.7h-9.4L199.6,683.6L199.6,683.6z"/>
			<g>
				<path class="st9" d="M212.8,670.3c2.2-1.4,4.1-3.4,5.4-5.5l0.1-0.1l-2.7-2c-1.6-1.2-2.3-2.5-2.3-4.3c0-2.5,2-4.4,4.5-4.4
					c1.7,0,2.9,0.8,3.9,1.6c0.8,1.4,1.3,3.1,1.3,4.9c0,4.9-3.5,9.5-9.1,11.9L212.8,670.3z"/>
				<path class="st8" d="M217.7,654.1c1.7,0,2.8,0.8,3.8,1.5c0.8,1.4,1.2,3.1,1.2,4.8c0,4.8-3.4,9.3-8.9,11.8l-0.9-1.9
					c2.1-1.4,4.1-3.4,5.3-5.5l0.1-0.2l-0.2-0.1l-2.6-1.9c-1.6-1.1-2.2-2.4-2.2-4.2C213.4,656,215.3,654.1,217.7,654.1 M217.7,653.9
					c-2.5,0-4.6,1.9-4.6,4.5c0,1.6,0.5,3.1,2.3,4.4l2.6,1.9c-1.4,2.4-3.5,4.4-5.4,5.5l1.1,2.3c5.4-2.3,9.3-6.8,9.3-12.1
					c0-1.7-0.4-3.5-1.3-5C220.8,654.7,219.5,653.9,217.7,653.9L217.7,653.9z"/>
			</g>
			<path class="st10" d="M218.1,664.7"/>
			<path class="st8" d="M233.6,698.4c-7.5,0-12.5-4-12.9-9.4h9.1c0.2,1.8,1.7,2.7,3.7,2.7c1.6,0,2.5-0.8,2.5-1.7
				c0-3.9-14.3-0.7-14.3-10.6c0-4.7,3.9-8.6,11.2-8.6s11.2,4.1,11.8,9.4h-8.5c-0.3-1.7-1.5-2.7-3.5-2.7c-1.5,0-2.4,0.6-2.4,1.6
				c0,3.8,14.4,0.8,14.4,11C244.8,694.8,240.6,698.4,233.6,698.4z"/>
		</g>
		<rect x="63.2" y="691.2" class="st2" width="63.4" height="6.4"/>
		
			<text transform="matrix(1 0 0 1 63.2346 695.7097)" class="st4" style="font-family:'NotoSans-Black'; font-size:6px; letter-spacing:6;">WEB.DE</text>
		<text transform="matrix(1 0 0 1 122.4346 695.7097)" class="st4" style="font-family:'NotoSans-Black'; font-size:6px;">V</text>
	</g>
</g>
<g id="Calque_8" class="st0">
	<rect id="fond" x="48.1" y="432.6" class="st11" width="471.6" height="86.6"/>
	<g id="LOGO_M" class="st1">
		<g id="LOGO" class="st0">
			<g class="st1">
				<path class="st8" d="M321.3,136.9h15.6l12.7,33c0,0,8.6-8.5,5.3-14c-1.4-2-5-2.2-5-2.2s6.1-0.3,6.9-0.7c3-1.9,4.7-9,3.1-10.1
					c-1-0.6-3.1-0.9-3.1-0.9s4-0.1,5-0.8c1.4-1.1,1.7-4.2,1.7-4.2h15.6v50.8H365v-28l-9.6,28h-11.8l-9.6-28.2v28.2h-13
					c0,0,0.1-1.9-1.1-2.7s-4.7-0.9-4.7-0.9s3.6-0.7,4.7-1.4s1.8-4.5,0-6.6c-1.8-2-13.4-2.9-13.4-2.9s11.4-1.3,13.4-3.8
					c3.1-3.9,2.8-8.1,0-10c-2.6-1.8-6.3-2.1-6.3-2.1s4.2-0.3,6.3-2.3s2-7.3,0.7-9s-8.1-2.8-8.1-2.8s6.6-0.5,7.4-1.3
					C321.3,140.5,321.3,136.9,321.3,136.9z"/>
			</g>
			<g class="st1">
				<g>
					<polygon class="st9" points="369.2,187.6 369.2,158.9 359.4,187.6 347.8,187.6 337.9,158.7 337.9,187.6 324,187.6 324,137 
						340.9,137 353.7,170.2 366.3,137 383,137 383,187.6 					"/>
					<path class="st8" d="M382.9,137.2v50.3h-13.6v-27.8v-1.5l-0.5,1.4l-9.5,27.8h-11.5l-9.6-28.1l-0.5-1.4v1.5v28h-13.6v-50.3h16.6
						l12.7,32.8l0.2,0.6l0.2-0.6l12.4-32.8h16.7 M383.2,136.9h-17l-12.5,33l-12.7-33h-17.1v50.8H338v-28.2l9.6,28.2h11.8l9.6-28v28
						h14.1v-50.8H383.2z"/>
				</g>
			</g>
			<path class="st12" d="M322.5,139.9c-0.6,0.8,4.5,1.4,4.5,1.4s-4.7,0.4-5.3,1C321.1,143,323.1,139.2,322.5,139.9z"/>
			<path class="st12" d="M323.3,147.1c-1.1,1.8,11.2,3.3,11.2,3.3s-14.5,0.4-12.8,3.7C323.3,157.5,324.4,145.3,323.3,147.1z"/>
			<path class="st12" d="M323.6,176c-1.7,1.8,10.8,2.7,10.8,2.7s-13.8,0.2-12.7,2.1C322.7,182.7,325.2,174.2,323.6,176z"/>
			<path class="st12" d="M322.9,163.8c-0.6,1.1,4.1,1.6,4.1,1.6s-5.2,0.1-4.8,1.2C322.6,167.7,323.5,162.8,322.9,163.8z"/>
			<path class="st12" d="M323.7,163.8c-0.7,1.1,4.7,1.6,4.7,1.6s-6.1,0.1-5.6,1.2C323.3,167.7,324.4,162.8,323.7,163.8z"/>
			<path class="st12" d="M345.1,181.1c-1,1.1,6.3,1.6,6.3,1.6s-8.1,0.1-7.4,1.2C344.6,185,346.1,180,345.1,181.1z"/>
			<path class="st12" d="M341,170.3c-0.6,1.1,4,1.6,4,1.6s-5.2,0.1-4.7,1.2C340.7,174.2,341.6,169.2,341,170.3z"/>
			<path class="st12" d="M368.5,175.2c-0.6,0.8,4.5,1.4,4.5,1.4s-4.7,0.4-5.3,1C367.1,178.3,369.1,174.5,368.5,175.2z"/>
			<path class="st12" d="M369,163.5c-0.6,0.9,5.7,1.3,5.7,1.3s-7.6,0.2-6.8,2S369.6,162.6,369,163.5z"/>
		</g>
		<g id="inutile" class="st0">
			<path class="st12" d="M65.9,455.7c-0.1-0.1-0.1-0.2,0-0.3C66.1,455.2,66,455.3,65.9,455.7z"/>
			<path class="st12" d="M70.4,456.8c0,0-1.6,0.1-3.1,0.4c-1,0.2-2,0.4-2.2,0.7c-0.4,0.5,0.5-1.3,0.8-2.1c0.2,0.2,0.8,0.4,1.4,0.6
				C68.7,456.5,70.4,456.8,70.4,456.8z"/>
			<path class="st12" d="M66.3,467.5c-0.4,2-1,3.6-1.8,2.1C64,468.7,64.9,468,66.3,467.5z"/>
			<path class="st12" d="M66.7,463.5c-0.5-0.3-0.7-0.6-0.5-0.9C66.5,462.1,66.7,462.6,66.7,463.5z"/>
			<path class="st12" d="M78,465.9c0,0-6.6,0.2-10.6,1.3c-0.4,0.1-0.7,0.2-1,0.3c0.3-1.4,0.4-3,0.4-4c0.2,0.1,0.4,0.2,0.7,0.3
				C70.4,465,78,465.9,78,465.9z"/>
			<path class="st12" d="M66,495.2c-0.5,1.1-1.1,1.8-1.6,1.1C64.2,495.8,64.9,495.5,66,495.2z"/>
			<path class="st12" d="M67,492.5c-0.6-0.3-0.8-0.6-0.5-1C67.1,490.8,67.2,491.5,67,492.5z"/>
			<path class="st12" d="M77.7,494.2c0,0-6.5,0.1-10.4,0.7c-0.5,0.1-0.9,0.2-1.3,0.2c0.4-0.8,0.8-1.9,0.9-2.7
				c0.1,0.1,0.2,0.1,0.4,0.2C70.1,493.7,77.7,494.2,77.7,494.2z"/>
			<path class="st12" d="M66.7,481.5c-0.2,0.6-0.5,1-0.7,0.6C65.9,481.8,66.2,481.6,66.7,481.5z"/>
			<path class="st12" d="M67.1,479.8c-0.3-0.2-0.4-0.4-0.2-0.6C67.2,478.9,67.2,479.3,67.1,479.8z"/>
			<path class="st12" d="M71.9,480.9c0,0-2.8,0.1-4.5,0.4c-0.2,0-0.4,0.1-0.6,0.2c0.2-0.5,0.3-1.1,0.4-1.6c0.1,0,0.1,0.1,0.2,0.1
				C68.6,480.6,71.9,480.9,71.9,480.9z"/>
			<path class="st12" d="M87.7,498.7c-0.3,0.6-0.7,1.1-1,0.7C86.5,499.1,87,498.9,87.7,498.7z"/>
			<path class="st12" d="M88.2,497.1c-0.4-0.2-0.5-0.4-0.3-0.6C88.3,496.2,88.4,496.5,88.2,497.1z"/>
			<path class="st12" d="M94.8,498.1c0,0-3,0-5.4,0.3c-0.7,0.1-1.3,0.2-1.8,0.3c0.2-0.5,0.5-1.1,0.6-1.6c0.2,0.1,0.5,0.2,0.9,0.3
				C91.2,497.9,94.8,498.1,94.8,498.1z"/>
			<path class="st12" d="M84.2,487.9c-0.2,0.6-0.4,1-0.6,0.7C83.6,488.3,83.8,488.1,84.2,487.9z"/>
			<path class="st12" d="M84.6,486.3c-0.2-0.2-0.3-0.4-0.2-0.6C84.6,485.4,84.6,485.7,84.6,486.3z"/>
			<path class="st12" d="M88.4,487.3c0,0-1.4,0-2.6,0.2c-0.6,0.1-1.1,0.2-1.5,0.3c0.2-0.5,0.3-1.1,0.3-1.6c0.2,0.2,0.5,0.3,0.9,0.4
				C86.7,487.1,88.4,487.3,88.4,487.3z"/>
			<path class="st12" d="M111.9,491c-0.1-0.1-0.1-0.2,0-0.2C112.1,490.5,112,490.6,111.9,491z"/>
			<path class="st12" d="M116.4,492.1c0,0-2.4,0.2-4,0.5c-0.7,0.2-1.2,0.3-1.4,0.5c-0.4,0.5,0.5-1.4,0.8-2.1
				c0.1,0.1,0.3,0.2,0.6,0.3C113.7,491.7,116.4,492.1,116.4,492.1z"/>
			<path class="st12" d="M111.9,481c-0.3,1.1-0.7,2-1.2,1.2C110.4,481.7,110.9,481.3,111.9,481z"/>
			<path class="st12" d="M112.1,479.4c-0.2-0.1-0.3-0.3-0.2-0.4C112.1,478.7,112.1,479,112.1,479.4z"/>
			<path class="st12" d="M118.1,480.2c0,0-3.4,0.1-5.7,0.6c-0.2,0-0.4,0.1-0.6,0.2c0.1-0.6,0.2-1.2,0.2-1.6c0.1,0,0.2,0.1,0.4,0.2
				C114.1,480.1,118.1,480.2,118.1,480.2z"/>
		</g>
	</g>
</g>
<g id="bannière" class="st0">
	<g id="iim_x27_s" class="st1">
		<g class="st13">
			<g>
				<g>
					<path class="st14" d="M222.8,116.8h24.7v70.6h-24.7V116.8z"/>
				</g>
			</g>
			<g>
				<g>
					<path class="st14" d="M261.5,116.8v70.6h24.7v-70.6C286.2,116.8,261.5,116.8,261.5,116.8z"/>
				</g>
			</g>
			<g>
				<g>
					<path class="st14" d="M396.4,149.5c0-7.7-4.7-12-11.7-12c-7.2,0-11.7,4.3-11.7,12v37.9h-24.7v-37.9c0-7.7-4.5-12-11.6-12
						c-7.3,0-11.8,4.3-11.8,12v37.9h-24.7v-70.6h24.7v9.3c4-5.7,10.9-9.9,20.5-9.9c10.6,0,18.9,4.8,23.5,13c4.8-7.2,13.1-13,23.5-13
						c17.9,0,28.6,11.6,28.6,30.1v41.1h-24.7v-37.9H396.4z"/>
				</g>
			</g>
		</g>
		<g class="st13">
			<g>
				<path class="st14" d="M485.4,187.3c-19.6,0-32.7-10.6-33.7-24.7h23.9c0.6,4.7,4.5,7.2,9.7,7.2c4.2,0,6.5-2,6.5-4.5
					c0-10.3-37.5-1.9-37.5-27.8c0-12.3,10.2-22.5,29.3-22.5c19.2,0,29.3,10.7,30.9,24.7h-22.3c-0.8-4.4-3.9-7-9.2-7
					c-4,0-6.2,1.6-6.2,4.3c0,10.1,37.6,2,37.7,28.8C514.7,178,503.6,187.3,485.4,187.3z"/>
			</g>
		</g>
		<g id="fond_00000062193023173306679640000006215805832392917406_">
			<path class="st9" d="M249.6,97.6c0,7-5.7,12.6-14.3,12.6c-8.8,0-14.5-5.5-14.5-12.6c0-7.2,5.7-12.8,14.5-12.8
				C243.9,84.8,249.6,90.5,249.6,97.6z"/>
			<path class="st9" d="M288.3,97.6c0,7-5.7,12.6-14.3,12.6c-8.8,0-14.5-5.5-14.5-12.6c0-7.2,5.7-12.8,14.5-12.8
				C282.6,84.8,288.3,90.5,288.3,97.6z"/>
			<path class="st9" d="M457.6,88.8c-0.5,13.4-10,25.6-24.3,31.7l-2.9-5.9c5-3.1,10.5-8.2,14.3-14.5l0,0l0,0l0,0l-6.8-5
				c-4.8-3.5-6.1-7.4-6.1-11.6c0-7,5.6-11.8,12-11.8C448.4,71.6,458.1,75.4,457.6,88.8z"/>
		</g>
		<g id="contour_00000050636555212041347610000014354332314187911614_" class="st15">
			<path class="st16" d="M235.2,84.8c8.7,0,14.3,5.7,14.3,12.8c0,7-5.7,12.6-14.3,12.6c-8.8,0-14.5-5.5-14.5-12.6
				C220.8,90.5,226.4,84.8,235.2,84.8 M235.2,84.4c-8.6,0-14.9,5.6-14.9,13.2c0,7.5,6.2,13,14.9,13c8.5,0,14.7-5.5,14.7-13
				C250,90,243.8,84.4,235.2,84.4L235.2,84.4z"/>
			<path class="st16" d="M274,84.8c8.7,0,14.3,5.7,14.3,12.8c0,7-5.7,12.6-14.3,12.6c-8.8,0-14.5-5.5-14.5-12.6
				C259.5,90.5,265.2,84.8,274,84.8 M274,84.4c-8.6,0-14.9,5.6-14.9,13.2c0,7.5,6.2,13,14.9,13c8.5,0,14.7-5.5,14.7-13
				C288.7,90,282.5,84.4,274,84.4L274,84.4z"/>
			<path class="st16" d="M443.8,71.6c4.6,0,14.3,3.8,13.8,17.2s-10,25.6-24.3,31.7l-2.9-5.9c5-3.1,10.5-8.2,14.3-14.5l-6.8-5
				c-4.8-3.5-6.1-7.4-6.1-11.6C431.8,76.5,437.4,71.6,443.8,71.6 M443.8,71.2c-7,0-12.4,5.4-12.4,12.2c0,5.1,1.9,8.8,6.3,12l6.6,4.7
				c-3.3,5.5-8.4,10.6-13.9,14.1l-0.3,0.2l0.2,0.3l2.9,5.9l0.2,0.3l0.3-0.1c14.6-6.3,24-18.5,24.5-32c0.2-5.6-1.3-10-4.4-13.2
				C450.5,72.3,446.4,71.2,443.8,71.2L443.8,71.2z"/>
		</g>
	</g>
	<g id="Web_Dev" class="st1">
		<g id="fond_00000121264645913483260800000000256778411585890699_">
			<path class="st9" d="M61.2,176.9l-2.7,10.5h-3.4l-1-4.6c0-0.1-0.1-0.2-0.1-0.4s-0.1-0.4-0.1-0.7c-0.1-0.3-0.1-0.5-0.1-0.8
				s-0.1-0.5-0.1-0.6c0,0.2-0.1,0.4-0.1,0.6c0,0.3-0.1,0.5-0.1,0.8c-0.1,0.3-0.1,0.5-0.1,0.7s-0.1,0.4-0.1,0.4l-1,4.6h-3.4L46,176.9
				h2.8l1.2,5.3c0,0.1,0.1,0.3,0.1,0.5c0.1,0.2,0.1,0.5,0.2,0.8c0.1,0.3,0.1,0.5,0.2,0.8c0.1,0.3,0.1,0.5,0.1,0.7
				c0-0.3,0.1-0.6,0.2-1c0.1-0.4,0.1-0.8,0.2-1.2c0.1-0.4,0.2-0.7,0.2-1.1c0.1-0.3,0.1-0.6,0.2-0.8l0.9-4H55l0.9,4
				c0.1,0.2,0.1,0.5,0.2,0.8c0.1,0.3,0.2,0.7,0.2,1.1c0.1,0.4,0.2,0.8,0.2,1.2c0.1,0.4,0.1,0.7,0.2,1c0-0.2,0.1-0.5,0.1-0.9
				c0.1-0.4,0.1-0.7,0.2-1.1c0.1-0.3,0.1-0.6,0.2-0.8l1.2-5.3H61.2z"/>
			<path class="st9" d="M84.1,187.3h-6.4v-10.5h6.4v2.3h-3.5v1.6h3.2v2.3h-3.2v2h3.5V187.3z"/>
			<path class="st9" d="M105,176.9c1.6,0,2.7,0.2,3.3,0.7c0.7,0.4,1,1.1,1,1.9c0,0.5-0.1,0.8-0.3,1.2c-0.2,0.3-0.4,0.6-0.6,0.8
				c-0.3,0.2-0.5,0.3-0.8,0.4v0.1c0.3,0.1,0.6,0.2,0.9,0.4s0.5,0.4,0.7,0.7s0.3,0.8,0.3,1.3c0,0.9-0.4,1.7-1.1,2.2s-1.7,0.8-3,0.8
				h-4.2v-10.5L105,176.9L105,176.9z M105,180.9c0.5,0,0.8-0.1,1-0.3s0.3-0.4,0.3-0.7c0-0.6-0.5-0.9-1.4-0.9h-0.8v1.9H105z
				 M104.1,182.9v2.2h1c0.5,0,0.9-0.1,1.1-0.3s0.3-0.5,0.3-0.8s-0.1-0.5-0.3-0.8c-0.2-0.2-0.6-0.3-1.1-0.3L104.1,182.9L104.1,182.9z
				"/>
			<path class="st9" d="M125.9,186.1c0-0.5,0.2-0.9,0.5-1.1c0.3-0.2,0.7-0.3,1.1-0.3s0.8,0.1,1.1,0.3s0.4,0.6,0.4,1.1
				s-0.1,0.8-0.4,1c-0.3,0.2-0.7,0.3-1.1,0.3s-0.8-0.1-1.1-0.3S125.9,186.6,125.9,186.1z"/>
			<path class="st9" d="M155.1,181.9c0,1.2-0.2,2.2-0.7,3s-1.1,1.4-2,1.8c-0.8,0.4-1.8,0.6-3,0.6H146v-10.5h3.7c1.7,0,3.1,0.4,4,1.3
				C154.6,179,155.1,180.2,155.1,181.9z M152.1,182c0-1.9-0.8-2.8-2.4-2.8h-0.8v5.9h0.6c0.9,0,1.5-0.2,1.9-0.7
				C151.9,183.8,152.1,183,152.1,182z"/>
			<path class="st9" d="M178.6,187.3h-6.4v-10.5h6.4v2.3h-3.5v1.6h3.2v2.3h-3.2v2h3.5V187.3z"/>
			<path class="st9" d="M205,176.9l-3.5,10.5H198l-3.5-10.5h3.3l1.5,5.3c0.1,0.2,0.1,0.5,0.2,0.8c0.1,0.3,0.1,0.6,0.2,0.9
				c0.1,0.3,0.1,0.6,0.1,0.8c0-0.2,0.1-0.4,0.1-0.8c0.1-0.3,0.1-0.6,0.2-0.9c0.1-0.3,0.1-0.6,0.2-0.8l1.5-5.3H205z"/>
		</g>
		<g id="contour" class="st15">
			<path class="st16" d="M61.2,176.9l-2.7,10.5h-3.4l-1-4.6c0-0.1-0.1-0.2-0.1-0.4s-0.1-0.4-0.1-0.7c-0.1-0.3-0.1-0.5-0.1-0.8
				s-0.1-0.5-0.1-0.6c0,0.2-0.1,0.4-0.1,0.6c0,0.3-0.1,0.5-0.1,0.8c-0.1,0.3-0.1,0.5-0.1,0.7s-0.1,0.4-0.1,0.4l-1,4.6h-3.4L46,176.9
				h2.8l1.2,5.3c0,0.1,0.1,0.3,0.1,0.5c0.1,0.2,0.1,0.5,0.2,0.8c0.1,0.3,0.1,0.5,0.2,0.8c0.1,0.3,0.1,0.5,0.1,0.7
				c0-0.3,0.1-0.6,0.2-1c0.1-0.4,0.1-0.8,0.2-1.2c0.1-0.4,0.2-0.7,0.2-1.1c0.1-0.3,0.1-0.6,0.2-0.8l0.9-4H55l0.9,4
				c0.1,0.2,0.1,0.5,0.2,0.8c0.1,0.3,0.2,0.7,0.2,1.1c0.1,0.4,0.2,0.8,0.2,1.2c0.1,0.4,0.1,0.7,0.2,1c0-0.2,0.1-0.5,0.1-0.9
				c0.1-0.4,0.1-0.7,0.2-1.1c0.1-0.3,0.1-0.6,0.2-0.8l1.2-5.3H61.2 M61.2,176.6h-2.8c-0.1,0-0.2,0.1-0.3,0.2l-1.2,5.3
				c0,0.2-0.1,0.4-0.2,0.8l-0.1,0.5c0-0.2-0.1-0.4-0.1-0.7c-0.1-0.4-0.2-0.8-0.2-1.1c-0.1-0.3-0.1-0.6-0.2-0.8l-0.9-4
				c0-0.1-0.1-0.2-0.3-0.2h-2.7c-0.1,0-0.2,0.1-0.3,0.2l-0.9,4l-0.1,0.6v0.2c-0.1,0.3-0.2,0.7-0.2,1.1c0,0.2-0.1,0.5-0.1,0.7
				l-0.2-0.7c-0.1-0.2-0.1-0.4-0.1-0.6l-1.2-5.2c0-0.1-0.1-0.2-0.3-0.2H46c-0.1,0-0.2,0-0.2,0.1s-0.1,0.1,0,0.2l2.7,10.5
				c0,0.1,0.1,0.2,0.3,0.2h3.4c0.1,0,0.2-0.1,0.3-0.2l1-4.6v-0.1l0.1-0.3c0-0.2,0.1-0.4,0.1-0.6l0.1,0.6c0,0.2,0.1,0.4,0.1,0.4
				l1,4.6c0,0.1,0.1,0.2,0.3,0.2h3.4c0.1,0,0.2-0.1,0.3-0.2l2.7-10.5c0-0.1,0-0.2,0-0.2C61.3,176.6,61.2,176.6,61.2,176.6
				L61.2,176.6z"/>
			<path class="st16" d="M84.1,176.9v2.3h-3.5v1.6h3.2v2.3h-3.2v2h3.5v2.3h-6.4v-10.5L84.1,176.9 M84.1,176.6h-6.4
				c-0.1,0-0.3,0.1-0.3,0.3v10.5c0,0.1,0.1,0.3,0.3,0.3h6.4c0.1,0,0.3-0.1,0.3-0.3V185c0-0.1-0.1-0.3-0.3-0.3h-3.2v-1.5h3
				c0.1,0,0.3-0.1,0.3-0.3v-2.3c0-0.1-0.1-0.3-0.3-0.3h-3v-1.1h3.2c0.1,0,0.3-0.1,0.3-0.3v-2.3C84.4,176.7,84.3,176.6,84.1,176.6
				L84.1,176.6z"/>
			<path class="st16" d="M105,176.9c1.6,0,2.7,0.2,3.3,0.7c0.7,0.4,1,1.1,1,1.9c0,0.5-0.1,0.8-0.3,1.2c-0.2,0.3-0.4,0.6-0.6,0.8
				c-0.3,0.2-0.5,0.3-0.8,0.4v0.1c0.3,0.1,0.6,0.2,0.9,0.4s0.5,0.4,0.7,0.7s0.3,0.8,0.3,1.3c0,0.9-0.4,1.7-1.1,2.2s-1.7,0.8-3,0.8
				h-4.2v-10.5L105,176.9 M104.1,180.9h0.9c0.5,0,0.8-0.1,1-0.3s0.3-0.4,0.3-0.7c0-0.6-0.5-0.9-1.4-0.9h-0.8V180.9 M104.1,185.1h1
				c0.5,0,0.9-0.1,1.1-0.3s0.3-0.5,0.3-0.8s-0.1-0.5-0.3-0.8c-0.2-0.2-0.6-0.3-1.1-0.3h-1V185.1 M105,176.6h-3.8
				c-0.1,0-0.3,0.1-0.3,0.3v10.5c0,0.1,0.1,0.3,0.3,0.3h4.2c1.3,0,2.4-0.3,3.2-0.9c0.8-0.6,1.2-1.4,1.2-2.5c0-0.6-0.1-1.1-0.3-1.5
				c-0.2-0.4-0.5-0.6-0.8-0.8c-0.1-0.1-0.2-0.1-0.4-0.2c0.1-0.1,0.2-0.1,0.3-0.2c0.3-0.2,0.5-0.5,0.7-0.8c0.2-0.4,0.3-0.8,0.3-1.3
				c0-0.9-0.4-1.7-1.1-2.2C107.7,176.8,106.6,176.6,105,176.6L105,176.6z M104.4,179.3h0.6c1.1,0,1.1,0.4,1.1,0.6
				c0,0.2-0.1,0.4-0.2,0.5s-0.4,0.2-0.8,0.2h-0.6L104.4,179.3L104.4,179.3z M104.4,183.2h0.7c0.5,0,0.8,0.1,0.9,0.2
				c0.2,0.2,0.2,0.4,0.2,0.6c0,0.3-0.1,0.5-0.2,0.6c-0.1,0.2-0.4,0.2-0.9,0.2h-0.8v-1.6H104.4z"/>
			<path class="st16" d="M127.4,184.8c0.4,0,0.8,0.1,1.1,0.3s0.4,0.6,0.4,1.1s-0.1,0.8-0.4,1c-0.3,0.2-0.7,0.3-1.1,0.3
				s-0.8-0.1-1.1-0.3c-0.3-0.2-0.5-0.6-0.5-1c0-0.5,0.2-0.9,0.5-1.1C126.6,184.9,127,184.8,127.4,184.8 M127.4,184.5
				c-0.5,0-0.9,0.1-1.3,0.4c-0.4,0.3-0.6,0.7-0.6,1.3s0.2,1,0.6,1.3c0.4,0.2,0.8,0.4,1.3,0.4s0.9-0.1,1.2-0.4
				c0.4-0.3,0.6-0.7,0.6-1.3s-0.2-1-0.6-1.3C128.3,184.6,127.9,184.5,127.4,184.5L127.4,184.5z"/>
			<path class="st16" d="M149.7,176.9c1.7,0,3.1,0.4,4,1.3c0.9,0.9,1.4,2.1,1.4,3.7c0,1.2-0.2,2.2-0.7,3s-1.1,1.4-2,1.8
				c-0.8,0.4-1.8,0.6-3,0.6H146v-10.5L149.7,176.9 M148.9,185h0.6c0.9,0,1.5-0.2,1.9-0.7s0.6-1.3,0.6-2.3c0-1.9-0.8-2.8-2.4-2.8
				h-0.8L148.9,185 M149.7,176.6H146c-0.1,0-0.3,0.1-0.3,0.3v10.5c0,0.1,0.1,0.3,0.3,0.3h3.5c1.2,0,2.2-0.2,3.1-0.6
				c0.9-0.4,1.6-1.1,2.1-1.9c0.5-0.8,0.7-1.9,0.7-3.2c0-1.7-0.5-3-1.5-3.9C152.9,177,151.5,176.6,149.7,176.6L149.7,176.6z
				 M149.1,179.4h0.6c1.4,0,2.1,0.8,2.1,2.6c0,1-0.2,1.7-0.6,2.1c-0.4,0.4-0.9,0.7-1.7,0.7h-0.4L149.1,179.4L149.1,179.4z"/>
			<path class="st16" d="M178.6,176.9v2.3h-3.5v1.6h3.2v2.3h-3.2v2h3.5v2.3h-6.4v-10.5L178.6,176.9 M178.6,176.6h-6.4
				c-0.1,0-0.3,0.1-0.3,0.3v10.5c0,0.1,0.1,0.3,0.3,0.3h6.4c0.1,0,0.3-0.1,0.3-0.3V185c0-0.1-0.1-0.3-0.3-0.3h-3.2v-1.5h3
				c0.1,0,0.3-0.1,0.3-0.3v-2.3c0-0.1-0.1-0.3-0.3-0.3h-3v-1.1h3.2c0.1,0,0.3-0.1,0.3-0.3v-2.3C178.9,176.7,178.7,176.6,178.6,176.6
				L178.6,176.6z"/>
			<path class="st16" d="M205,176.9l-3.5,10.5H198l-3.5-10.5h3.3l1.5,5.3c0.1,0.2,0.1,0.5,0.2,0.8c0.1,0.3,0.1,0.6,0.2,0.9
				c0.1,0.3,0.1,0.6,0.1,0.8c0-0.2,0.1-0.4,0.1-0.8c0.1-0.3,0.1-0.6,0.2-0.9c0.1-0.3,0.1-0.6,0.2-0.8l1.5-5.3H205 M205,176.6h-3.3
				c-0.1,0-0.2,0.1-0.3,0.2l-1.5,5.3c-0.1,0.2-0.1,0.5-0.2,0.8c0,0.1,0,0.1,0,0.2c0-0.1,0-0.2-0.1-0.2c-0.1-0.3-0.1-0.6-0.2-0.8
				l-1.5-5.3c0-0.1-0.1-0.2-0.3-0.2h-3.3c-0.1,0-0.2,0-0.2,0.1s-0.1,0.2,0,0.2l3.5,10.5c0,0.1,0.1,0.2,0.2,0.2h3.4
				c0.1,0,0.2-0.1,0.2-0.2l3.5-10.5c0-0.1,0-0.2,0-0.2S205.1,176.6,205,176.6L205,176.6z"/>
		</g>
	</g>
	<g id="ombrage" class="st1">
		<path class="st17" d="M167.8,135.4c1.8,0.7,4.8,1.3,7.2,1.6c-2.1,0.3-4.9,0.6-7.1,1.1l-0.3,0.1v28.3h-10.7v-40l10.7-31.4v9.5
			l0.3,0.1c2.1,0.7,5.8,1.1,8.9,1.4c-2.9,0.3-6.2,0.7-8.9,1.3l-0.3,0.1v27.8L167.8,135.4z"/>
		<path class="st17" d="M111.6,166.3l0.1,0.3h-10.8l-0.1-0.3L87,126.1V94.5l9.9,28.8l0.1,0.2l0.2,0.1c1.3,0.4,2.8,0.8,4.1,1
			c-1,0.1-2.2,0.2-3.3,0.4l-0.5,0.1l0.2,0.4l8.8,25.8l0.1,0.2l0.2,0.1c2.4,0.6,5.7,1,8.6,1.3c-2.4,0.1-5.2,0.3-7.7,0.6l-0.5,0.1
			l0.2,0.5L111.6,166.3z"/>
		<path class="st17" d="M160.1,32.7L160,33l-32.3,85.4l-3.3-8.5c5.5-7.7,11-18.7,6-26.8c-2.3-3.9-12.6-5.7-12.7-5.7l-3.8-0.6
			l3.9-0.2c6.4-0.3,16.4-1,17.8-1.9c5.4-3.5,9.5-14,9.5-21.1c0-2.5-0.6-4.2-1.5-4.9c-1.9-1.3-8-2.2-8-2.2l-3.5-0.5l3.5-0.3
			c3.1-0.2,11.6-1.1,12.9-2.1c3.5-2.6,4.4-10.7,4.4-10.7v-0.3L160.1,32.7L160.1,32.7z"/>
		<path class="st17" d="M49.3,138.8v-30.2l0.3-0.1c2.2-0.4,5.1-0.7,7.4-0.9c-2.6-0.4-5.8-1-7.5-1.9l-0.2-0.1v-34l0.3-0.1
			c7.2-1.9,17.6-2.8,23.5-3.1c-6.4-0.9-17.9-2.7-23.5-5l-0.2-0.1V45.2l0.3-0.1c1.6-0.3,3.4-0.5,4.8-0.6c-1.5-0.2-3.2-0.6-4.8-0.9
			l-0.3-0.1V32.7h-6.9v0.4c0,0.1-0.1,9.3-3.8,13c-1.3,1.3-12.2,2.7-19.1,3.2l-3.2,0.3l3.2,0.5c0.2,0,17.6,2.9,21,7.3
			c3.3,4.2,3.5,18.1-1.8,22.9c-5.4,5-16.2,5.9-16.3,5.9l-3.7,0.3l3.7,0.5c0.1,0,11.1,1.5,16.4,5.4c3,2.3,4.9,5.5,5.4,9.4
			c0.7,5.2-1.3,11-5.5,16.3c-5,6.3-34.5,9.7-34.8,9.7l-4,0.5l3.8,0.4c0.3,0,29.4,2.9,34.9,7.4c3,2.5,3.2,6.7,3,8.9
			c-0.3,3.8-1.7,6.9-3,7.7c-2.8,1.8-12.2,3.6-12.3,3.6l-3.3,0.7l3.3,0.1c0.1,0,9.2,0.4,12.2,2.4c2.9,2,2.8,6.6,2.8,6.7v0.4h7.8
			v-22.2l0.3-0.1c6.1-1,14.6-1.5,20.5-1.7c-6.5-0.7-16-1.8-20.6-3.6L49.3,138.8z M30.6,155.8c-0.7,0.2-1.3,0.3-1.8,0.4
			C29.3,156,30,155.9,30.6,155.8c1-0.2,2-0.5,3.1-0.8C32.7,155.3,31.6,155.5,30.6,155.8z"/>
	</g>
	<path id="M_contour" class="st18" d="M160.1,32.7L160,33l-32.3,85.4l-3.3-8.5L94.7,33l-0.1-0.3H49.3v10.8l0.3,0.1
		c1.6,0.4,3.3,0.7,4.8,0.9c-1.4,0.2-3.1,0.4-4.8,0.6l-0.3,0.1v18.2l0.2,0.1c5.7,2.3,17.2,4.1,23.5,5c-5.9,0.3-16.3,1.2-23.5,3.1
		l-0.3,0.1v34l0.2,0.1c1.8,0.9,4.9,1.5,7.5,1.9c-2.4,0.2-5.2,0.4-7.4,0.9l-0.3,0.1v30.2l0.3,0.1c4.6,1.8,14.1,3,20.6,3.6
		c-5.9,0.2-14.4,0.7-20.5,1.7l-0.3,0.1v22.2H87v-72l9.9,28.8l0.1,0.2l0.2,0.1c1.3,0.4,2.8,0.8,4.1,1c-1,0.1-2.2,0.2-3.3,0.4
		l-0.5,0.1l0.2,0.4l8.8,25.8l0.1,0.2l0.2,0.1c2.4,0.6,5.7,1,8.6,1.3c-2.4,0.1-5.2,0.3-7.7,0.6l-0.5,0.1l0.2,0.5l4.2,12.3l0.1,0.3
		h31.5l0.1-0.3l13.6-39.7l10.7-31.4v9.5l0.3,0.1c2.1,0.7,5.8,1.1,8.9,1.4c-2.9,0.3-6.2,0.7-8.9,1.3l-0.3,0.1v27.8l0.3,0.1
		c1.8,0.7,4.8,1.3,7.2,1.6c-2.1,0.3-4.9,0.6-7.1,1.1l-0.3,0.1v28.3h37.8V32.7H160.1z M205,166.2h-37v-27.6
		c4.2-0.9,10.4-1.4,10.4-1.4s-7.1-0.8-10.4-2v-27.3c5.8-1.4,14.8-1.7,14.8-1.7s-10.6-0.5-14.8-1.8V92.8l-11.1,32.6L143,166.2h-30.9
		l-4.2-12.3c6.2-0.7,14-0.8,14-0.8s-9.6-0.7-14.9-1.9l-9-25.9c3.3-0.5,6.9-0.6,6.9-0.6s-4.5-0.5-7.7-1.5l-10.6-31v74h-37v-21.5
		c10.3-1.7,27.3-1.9,27.3-1.9s-19.9-1.4-27.3-4.2v-29.7c4.5-0.9,11.8-1.1,11.8-1.1s-8.6-0.8-11.8-2.4V71.9
		c10.5-2.8,27.8-3.3,27.8-3.3s-19.9-2.3-27.8-5.5V45.6c3.8-0.6,8.1-1,8.1-1s-4.6-0.5-8.1-1.4V33.1h44.7l29.8,77.2l3.6,9.2l32.6-86.4
		H205V166.2z"/>
	<path id="M_blanc_00000084493260895671248770000010480976913563526280_" class="st4" d="M205,33.1v133h-37v-27.6
		c4.2-0.9,10.4-1.4,10.4-1.4s-7.1-0.8-10.4-2v-27.3c5.8-1.4,14.8-1.7,14.8-1.7s-10.6-0.5-14.8-1.8V92.8l-25.1,73.4H112l-4.2-12.3
		c6.2-0.7,14-0.8,14-0.8s-9.6-0.7-14.9-1.9L98,125.3c3.3-0.5,6.9-0.6,6.9-0.6s-4.5-0.5-7.7-1.5l-10.6-31v74h-37v-21.5
		c10.3-1.7,27.3-1.9,27.3-1.9s-19.9-1.4-27.3-4.2v-29.7c4.5-0.9,11.8-1.1,11.8-1.1s-8.6-0.8-11.8-2.4V71.9
		c10.5-2.8,27.8-3.3,27.8-3.3s-19.9-2.3-27.8-5.5V45.6c3.8-0.6,8.1-1,8.1-1s-4.6-0.5-8.1-1.4V33.1h44.7l33.4,86.4l32.6-86.4H205z"/>
</g>
<g id="retravaillé">
	<g id="iim_x27_s_00000083801721095657352120000013273238301068384421_">
		<g class="st13">
			<g>
				<g>
					<path class="st14" d="M199.2,93.2h24.7v70.6h-24.7V93.2z"/>
				</g>
			</g>
			<g>
				<g>
					<path class="st14" d="M238,93.2v70.6h24.7V93.2H238z"/>
				</g>
			</g>
			<g>
				<g>
					<path class="st14" d="M372.8,125.9c0-7.7-4.7-12-11.7-12c-7.2,0-11.7,4.3-11.7,12v37.9h-24.7v-37.9c0-7.7-4.5-12-11.6-12
						c-7.3,0-11.8,4.3-11.8,12v37.9h-24.7V93.2h24.7v9.3c4-5.7,10.9-9.9,20.5-9.9c10.6,0,18.9,4.8,23.5,13c4.8-7.2,13.1-13,23.5-13
						c17.9,0,28.6,11.6,28.6,30.1v41.1h-24.7v-37.9H372.8z"/>
				</g>
			</g>
		</g>
		<g class="st13">
			<g>
				<path class="st14" d="M461.9,163.8c-19.6,0-32.7-10.6-33.7-24.7H452c0.6,4.7,4.5,7.2,9.7,7.2c4.2,0,6.5-2,6.5-4.5
					c0-10.3-37.5-1.9-37.5-27.8c0-12.3,10.2-22.5,29.3-22.5c19.2,0,29.3,10.7,30.9,24.7h-22.3c-0.8-4.4-3.9-7-9.2-7
					c-4,0-6.2,1.6-6.2,4.3c0,10.1,37.6,2,37.7,28.8C491.2,154.5,480.1,163.8,461.9,163.8z"/>
			</g>
		</g>
		<g id="fond_00000164494059555273984090000017742973437325267891_">
			<path class="st9" d="M226,74.1c0,7-5.7,12.6-14.3,12.6c-8.8,0-14.5-5.5-14.5-12.6c0-7.2,5.7-12.8,14.5-12.8
				C220.4,61.2,226,66.9,226,74.1z"/>
			<path class="st9" d="M264.8,74.1c0,7-5.7,12.6-14.3,12.6c-8.8,0-14.5-5.5-14.5-12.6c0-7.2,5.7-12.8,14.5-12.8
				C259.1,61.2,264.8,66.9,264.8,74.1z"/>
			<path class="st9" d="M434.1,65.2c-0.5,13.4-10,25.6-24.3,31.7L407,91c5-3.1,10.5-8.2,14.3-14.5l0,0l0,0l0,0l-6.8-5
				c-4.8-3.5-6.1-7.4-6.1-11.6c0-7,5.6-11.8,12-11.8C424.9,48,434.5,51.8,434.1,65.2z"/>
		</g>
		<g id="contour_00000173160034479617250220000016170295852566840230_" class="st15">
			<path class="st16" d="M211.7,61.2c8.7,0,14.3,5.7,14.3,12.8c0,7-5.7,12.6-14.3,12.6c-8.8,0-14.5-5.5-14.5-12.6
				S202.9,61.2,211.7,61.2 M211.7,60.8c-8.6,0-14.9,5.6-14.9,13.2c0,7.5,6.2,13,14.9,13c8.5,0,14.7-5.5,14.7-13
				C226.4,66.4,220.2,60.8,211.7,60.8L211.7,60.8z"/>
			<path class="st16" d="M250.4,61.2c8.7,0,14.3,5.7,14.3,12.8c0,7-5.7,12.6-14.3,12.6c-8.8,0-14.5-5.5-14.5-12.6
				C236,66.9,241.6,61.2,250.4,61.2 M250.4,60.8c-8.6,0-14.9,5.6-14.9,13.2c0,7.5,6.2,13,14.9,13c8.5,0,14.7-5.5,14.7-13
				C265.2,66.4,259,60.8,250.4,60.8L250.4,60.8z"/>
			<path class="st16" d="M420.3,48c4.6,0,14.3,3.8,13.8,17.2s-10,25.6-24.3,31.7L407,91c5-3.1,10.5-8.2,14.3-14.5l-6.8-5
				c-4.8-3.5-6.1-7.4-6.1-11.6C408.2,52.9,413.8,48,420.3,48 M420.3,47.6c-7,0-12.4,5.4-12.4,12.2c0,5.1,1.9,8.8,6.3,12l6.6,4.7
				c-3.3,5.5-8.4,10.6-13.9,14.1l-0.3,0.2l0.2,0.3l2.9,5.9l0.2,0.3l0.3-0.1c14.6-6.3,24-18.5,24.5-32c0.2-5.6-1.3-10-4.4-13.2
				C426.9,48.8,422.8,47.6,420.3,47.6L420.3,47.6z"/>
		</g>
	</g>
	<g id="Web_Dev_00000126300257128110695880000000952839801294331839_">
		<g id="fond_00000034785276581718729510000011550978210909323917_">
			<path class="st9" d="M22.5,141.6l-2.8,15.5h-3.6l-1.1-6.8c0-0.1-0.1-0.3-0.1-0.7s-0.1-0.7-0.1-1c-0.1-0.4-0.1-0.8-0.1-1.2
				s-0.1-0.7-0.1-1c0,0.3-0.1,0.6-0.1,1s-0.1,0.8-0.1,1.2c-0.1,0.4-0.1,0.7-0.1,1s-0.1,0.5-0.1,0.7l-1.1,6.8H9.4l-2.8-15.5h2.9
				l1.2,7.8c0,0.2,0.1,0.5,0.1,0.8c0.1,0.4,0.1,0.7,0.2,1.1c0.1,0.4,0.1,0.8,0.2,1.2c0.1,0.4,0.1,0.7,0.1,1c0-0.4,0.1-0.9,0.2-1.5
				c0.1-0.6,0.1-1.1,0.2-1.7c0.1-0.6,0.2-1.1,0.2-1.6c0.1-0.5,0.1-0.9,0.2-1.2l1-5.9H16l1,5.9c0.1,0.3,0.1,0.7,0.2,1.2
				s0.2,1,0.2,1.6c0.1,0.6,0.2,1.1,0.2,1.7c0.1,0.6,0.1,1.1,0.2,1.5c0-0.4,0.1-0.8,0.2-1.3s0.1-1.1,0.2-1.6s0.1-0.9,0.2-1.2l1.2-7.8
				H22.5z"/>
			<path class="st9" d="M46.5,157.1h-6.7v-15.5h6.7v3.4h-3.6v2.4h3.4v3.4h-3.4v2.9h3.6V157.1z"/>
			<path class="st9" d="M68.2,141.6c1.6,0,2.8,0.3,3.5,1s1,1.6,1,2.9c0,0.7-0.1,1.3-0.3,1.7c-0.2,0.5-0.4,0.8-0.7,1.1
				c-0.3,0.3-0.5,0.5-0.8,0.6v0.1c0.3,0.1,0.6,0.3,0.9,0.5s0.6,0.6,0.8,1.1c0.2,0.5,0.3,1.1,0.3,2c0,1.4-0.4,2.5-1.1,3.3
				c-0.8,0.8-1.8,1.2-3.1,1.2h-4.4v-15.5L68.2,141.6L68.2,141.6z M68.2,147.6c0.5,0,0.9-0.1,1.1-0.4c0.2-0.3,0.3-0.6,0.3-1
				c0-0.9-0.5-1.3-1.4-1.3h-0.8v2.8h0.8V147.6z M67.3,150.6v3.3h1.1c0.5,0,0.9-0.2,1.1-0.5s0.3-0.7,0.3-1.2c0-0.4-0.1-0.8-0.3-1.1
				c-0.2-0.3-0.6-0.5-1.2-0.5H67.3z"/>
			<path class="st9" d="M90,155.4c0-0.8,0.2-1.3,0.5-1.6s0.7-0.5,1.2-0.5c0.4,0,0.8,0.2,1.1,0.5c0.3,0.3,0.5,0.8,0.5,1.6
				c0,0.7-0.2,1.2-0.5,1.5s-0.7,0.5-1.1,0.5c-0.5,0-0.8-0.2-1.2-0.5C90.1,156.6,90,156.1,90,155.4z"/>
			<path class="st9" d="M120.4,149.1c0,1.8-0.2,3.3-0.7,4.5s-1.2,2.1-2.1,2.7c-0.9,0.6-1.9,0.9-3.1,0.9h-3.6v-15.5h3.9
				c1.8,0,3.2,0.6,4.2,1.9C119.9,144.8,120.4,146.6,120.4,149.1z M117.3,149.2c0-2.8-0.8-4.2-2.5-4.2h-0.9v8.7h0.7
				c0.9,0,1.6-0.4,2-1.1C117.1,151.9,117.3,150.7,117.3,149.2z"/>
			<path class="st9" d="M144.9,157.1h-6.7v-15.5h6.7v3.4h-3.6v2.4h3.4v3.4h-3.4v2.9h3.6V157.1z"/>
			<path class="st9" d="M172.4,141.6l-3.7,15.5h-3.6l-3.7-15.5h3.4l1.5,7.9c0.1,0.3,0.1,0.7,0.2,1.1c0.1,0.5,0.1,0.9,0.2,1.4
				c0.1,0.5,0.1,0.8,0.1,1.1c0-0.3,0.1-0.7,0.1-1.1s0.1-0.9,0.2-1.4c0.1-0.5,0.1-0.8,0.2-1.1l1.6-7.9H172.4z"/>
		</g>
		<g id="contour_00000155853384759245711850000014490893638825873567_" class="st15">
			<path class="st16" d="M22.5,141.6l-2.8,15.5h-3.6l-1.1-6.8c0-0.1-0.1-0.3-0.1-0.7c0-0.3-0.1-0.7-0.1-1c-0.1-0.4-0.1-0.8-0.1-1.2
				s-0.1-0.7-0.1-1c0,0.3-0.1,0.6-0.1,1s-0.1,0.8-0.1,1.2c-0.1,0.4-0.1,0.7-0.1,1s-0.1,0.5-0.1,0.7l-1.1,6.8H9.4l-2.8-15.5h2.9
				l1.2,7.8c0,0.2,0.1,0.5,0.1,0.8c0.1,0.4,0.1,0.7,0.2,1.1c0.1,0.4,0.1,0.8,0.2,1.2c0.1,0.4,0.1,0.7,0.1,1c0-0.4,0.1-0.9,0.2-1.5
				c0.1-0.6,0.1-1.1,0.2-1.7c0.1-0.6,0.2-1.1,0.2-1.6c0.1-0.5,0.1-0.9,0.2-1.2l1-5.9H16l1,5.9c0.1,0.3,0.1,0.7,0.2,1.2
				s0.2,1,0.2,1.6c0.1,0.6,0.2,1.1,0.2,1.7c0.1,0.6,0.1,1.1,0.2,1.5c0-0.4,0.1-0.8,0.2-1.3s0.1-1.1,0.2-1.6s0.1-0.9,0.2-1.2l1.2-7.8
				H22.5 M22.5,141.2h-2.9c-0.1,0-0.2,0.1-0.3,0.3l-1.2,7.8c0,0.3-0.1,0.7-0.2,1.2l-0.1,0.7c0-0.3-0.1-0.6-0.1-1
				c-0.1-0.6-0.2-1.1-0.2-1.6c-0.1-0.5-0.1-0.9-0.2-1.2l-1-5.9c0-0.2-0.1-0.3-0.3-0.3h-2.8c-0.1,0-0.2,0.1-0.3,0.3l-1,5.9l-0.2,0.9
				v0.3c-0.1,0.5-0.2,1-0.2,1.6c0,0.3-0.1,0.7-0.1,1l-0.2-1.1c-0.1-0.4-0.1-0.6-0.1-0.8l-1.2-7.8c0-0.2-0.1-0.3-0.3-0.3H6.7
				c-0.1,0-0.2,0.1-0.2,0.2c-0.1,0.1-0.1,0.2,0,0.3l2.8,15.5c0,0.2,0.1,0.3,0.3,0.3H13c0.1,0,0.2-0.1,0.3-0.3l1.1-6.8v-0.2l0.1-0.5
				c0-0.3,0.1-0.6,0.1-0.9l0.1,0.9c0,0.3,0.1,0.5,0.1,0.7l1.1,6.8c0,0.2,0.1,0.3,0.3,0.3h3.6c0.1,0,0.2-0.1,0.3-0.3l2.8-15.5
				c0-0.1,0-0.2,0-0.3C22.7,141.3,22.6,141.2,22.5,141.2L22.5,141.2z"/>
			<path class="st16" d="M46.5,141.6v3.4h-3.6v2.4h3.4v3.4h-3.4v2.9h3.6v3.4h-6.7v-15.5L46.5,141.6 M46.5,141.2h-6.7
				c-0.2,0-0.3,0.2-0.3,0.4v15.5c0,0.2,0.1,0.4,0.3,0.4h6.7c0.2,0,0.3-0.2,0.3-0.4v-3.4c0-0.2-0.1-0.4-0.3-0.4h-3.4v-2.2h3.1
				c0.2,0,0.3-0.2,0.3-0.4v-3.4c0-0.2-0.1-0.4-0.3-0.4h-3.1v-1.7h3.4c0.2,0,0.3-0.2,0.3-0.4v-3.4C46.7,141.4,46.6,141.2,46.5,141.2
				L46.5,141.2z"/>
			<path class="st16" d="M68.2,141.6c1.6,0,2.8,0.3,3.5,1s1,1.6,1,2.9c0,0.7-0.1,1.3-0.3,1.7c-0.2,0.5-0.4,0.8-0.7,1.1
				c-0.3,0.3-0.5,0.5-0.8,0.6v0.1c0.3,0.1,0.6,0.3,0.9,0.5s0.6,0.6,0.8,1.1c0.2,0.5,0.3,1.1,0.3,2c0,1.4-0.4,2.5-1.1,3.3
				c-0.8,0.8-1.8,1.2-3.1,1.2h-4.4v-15.5L68.2,141.6 M67.3,147.6h0.9c0.5,0,0.9-0.1,1.1-0.4s0.3-0.6,0.3-1c0-0.9-0.5-1.3-1.4-1.3
				h-0.8L67.3,147.6 M67.3,153.9h1.1c0.5,0,0.9-0.2,1.1-0.5s0.3-0.7,0.3-1.2c0-0.4-0.1-0.8-0.3-1.1c-0.2-0.3-0.6-0.5-1.2-0.5h-1
				V153.9 M68.2,141.2h-3.9c-0.2,0-0.3,0.2-0.3,0.4v15.5c0,0.2,0.1,0.4,0.3,0.4h4.4c1.4,0,2.5-0.4,3.3-1.3c0.8-0.9,1.3-2.1,1.3-3.6
				c0-0.9-0.1-1.6-0.3-2.2c-0.2-0.5-0.5-1-0.9-1.2c-0.1-0.1-0.2-0.2-0.4-0.3c0.1-0.1,0.2-0.2,0.3-0.3c0.3-0.3,0.5-0.7,0.7-1.3
				c0.2-0.5,0.3-1.2,0.3-1.9c0-1.4-0.4-2.5-1.2-3.2C71.1,141.6,69.9,141.2,68.2,141.2L68.2,141.2z M67.6,145.2h0.6
				c1.2,0,1.2,0.7,1.2,0.9c0,0.3-0.1,0.6-0.2,0.8s-0.4,0.3-0.9,0.3h-0.6L67.6,145.2L67.6,145.2z M67.6,151h0.7c0.5,0,0.8,0.1,1,0.4
				c0.2,0.3,0.2,0.5,0.2,0.9s-0.1,0.7-0.2,0.9c-0.2,0.2-0.5,0.3-0.9,0.3h-0.8L67.6,151L67.6,151z"/>
			<path class="st16" d="M91.6,153.3c0.4,0,0.8,0.2,1.1,0.5c0.3,0.3,0.5,0.8,0.5,1.6c0,0.7-0.2,1.2-0.5,1.5s-0.7,0.5-1.1,0.5
				c-0.5,0-0.8-0.2-1.2-0.5c-0.3-0.3-0.5-0.8-0.5-1.5c0-0.8,0.2-1.3,0.5-1.6C90.8,153.5,91.2,153.3,91.6,153.3 M91.6,152.9
				c-0.5,0-0.9,0.2-1.3,0.5c-0.4,0.4-0.6,1-0.6,1.9c0,0.8,0.2,1.5,0.6,1.9s0.8,0.5,1.3,0.5s0.9-0.2,1.3-0.6c0.4-0.4,0.6-1,0.6-1.9
				s-0.2-1.5-0.6-1.9C92.5,153.1,92.1,152.9,91.6,152.9L91.6,152.9z"/>
			<path class="st16" d="M114.8,141.6c1.8,0,3.2,0.6,4.2,1.9c1,1.3,1.5,3.1,1.5,5.5c0,1.8-0.2,3.3-0.7,4.5s-1.2,2.1-2.1,2.7
				c-0.9,0.6-1.9,0.9-3.1,0.9H111v-15.5L114.8,141.6 M113.9,153.7h0.7c0.9,0,1.6-0.4,2-1.1c0.4-0.7,0.6-1.9,0.6-3.4
				c0-2.8-0.8-4.2-2.5-4.2h-0.9v8.7 M114.8,141.2h-3.9c-0.2,0-0.3,0.2-0.3,0.4v15.5c0,0.2,0.1,0.4,0.3,0.4h3.6
				c1.2,0,2.3-0.3,3.2-0.9c0.9-0.6,1.7-1.6,2.2-2.9c0.5-1.3,0.8-2.8,0.8-4.7c0-2.5-0.5-4.5-1.6-5.8
				C118.1,141.9,116.7,141.2,114.8,141.2L114.8,141.2z M114.2,145.4h0.6c1.5,0,2.2,1.2,2.2,3.8c0,1.4-0.2,2.5-0.6,3.1
				c-0.4,0.7-1,1-1.8,1h-0.4L114.2,145.4L114.2,145.4z"/>
			<path class="st16" d="M144.9,141.6v3.4h-3.6v2.4h3.4v3.4h-3.4v2.9h3.6v3.4h-6.7v-15.5L144.9,141.6 M144.9,141.2h-6.7
				c-0.2,0-0.3,0.2-0.3,0.4v15.5c0,0.2,0.1,0.4,0.3,0.4h6.7c0.2,0,0.3-0.2,0.3-0.4v-3.4c0-0.2-0.1-0.4-0.3-0.4h-3.4v-2.2h3.1
				c0.2,0,0.3-0.2,0.3-0.4v-3.4c0-0.2-0.1-0.4-0.3-0.4h-3.1v-1.7h3.4c0.2,0,0.3-0.2,0.3-0.4v-3.4
				C145.2,141.4,145.1,141.2,144.9,141.2L144.9,141.2z"/>
			<path class="st16" d="M172.4,141.6l-3.7,15.5h-3.6l-3.7-15.5h3.4l1.5,7.9c0.1,0.3,0.1,0.7,0.2,1.1c0.1,0.5,0.1,0.9,0.2,1.4
				c0.1,0.5,0.1,0.8,0.1,1.1c0-0.3,0.1-0.7,0.1-1.1c0.1-0.5,0.1-0.9,0.2-1.4c0.1-0.5,0.1-0.8,0.2-1.1l1.6-7.9H172.4 M172.4,141.2
				H169c-0.1,0-0.2,0.1-0.3,0.3l-1.6,7.9c-0.1,0.3-0.1,0.7-0.2,1.1c0,0.1,0,0.2,0,0.3c0-0.1,0-0.2-0.1-0.4c-0.1-0.5-0.1-0.9-0.2-1.1
				l-1.5-7.9c0-0.2-0.1-0.3-0.3-0.3h-3.4c-0.1,0-0.2,0.1-0.2,0.2c-0.1,0.1-0.1,0.2,0,0.4l3.7,15.5c0,0.2,0.1,0.3,0.3,0.3h3.6
				c0.1,0,0.2-0.1,0.3-0.3l3.7-15.5c0-0.1,0-0.2,0-0.4C172.6,141.3,172.5,141.2,172.4,141.2L172.4,141.2z"/>
		</g>
	</g>
	<path id="M_contour_00000090264262939755279210000010997957447762331531_" class="st17" d="M127.6,3.2l-0.1,0.3v0.1L95.2,88.9
		l-6.9-17.7L62.2,3.4l-0.1-0.3H16.7V137h37.8V65L79,136.6v0.1l0.1,0.3h31.5l0.1-0.3l10.7-31.4L135,65.5V137h37.8V3.2H127.6z
		 M172.4,136.6h-37V63.2l-14,40.9l-11.1,32.5H79.4l0,0l-25.3-74v74h-37V3.6h44.7l26.3,68.1L95.2,90l32.6-86.4h44.6V136.6z"/>
	<g class="st15">
		<rect x="3.3" y="3.4" class="st14" width="13.2" height="133.4"/>
		<path class="st14" d="M16.3,3.5v133H3.5V3.5L16.3,3.5 M16.7,3.1H3.1V137h13.6V3.1L16.7,3.1z"/>
	</g>
	<g class="st15">
		<polygon class="st14" points="65.7,136.8 54.7,104.6 54.7,66.2 78.8,136.8 		"/>
		<path class="st14" d="M54.9,67.3l23.7,69.2H65.8l-10.9-32V67.3 M54.5,65v39.7L65.6,137h13.6L54.5,65L54.5,65z"/>
	</g>
	<g class="st15">
		<polygon class="st14" points="88.6,71.1 114.2,3.4 127.3,3.4 95.2,88.3 		"/>
		<path class="st14" d="M127,3.6L95.2,87.8l-6.4-16.6l25.5-67.6L127,3.6 M127.6,3.2H114L88.4,71.1l6.9,17.7L127.6,3.2L127.6,3.2z"/>
	</g>
	<g class="st15">
		<polygon class="st14" points="121.6,136.8 121.6,105.3 134.8,66.7 134.8,136.8 		"/>
		<path class="st14" d="M134.6,67.9v68.7h-12.8v-31.2L134.6,67.9 M135,65.5l-13.6,39.8V137H135V65.5L135,65.5z"/>
	</g>
	<polygon id="M_blanc" class="st9" points="172.4,3.6 172.4,136.6 135.4,136.6 135.4,63.2 110.3,136.6 79.4,136.6 54.1,62.6 
		54.1,136.6 17.1,136.6 17.1,3.6 61.8,3.6 95.2,90 127.9,3.6 	"/>
	<path class="st17" d="M212.5,47.3C219.9,15,258.2,0.6,286.6,16c9.1,4.3,16.1,11.7,24.6,16.7c7.9,4.8,16.5,7.9,25.3,8.7
		c8.8,0.8,17.9-0.8,26.9-3.4c18-5.3,35.7-14,53.2-22.5c9.3-4.5,19.2-8,29.6-9.8c63.3-10.6,92.7,49.6,80.3,104.1
		c-4.2,19.7-12.5,38.2-23.6,54.5c8.6-17.7,14.9-36.4,17.3-55.6c6.9-47.2-16.9-100.5-71.8-90.5c-9,1.6-17.7,4.9-26.1,9
		c-18,8.6-36,17.4-55.6,22.7c-20.3,5.9-43.4,4.2-61-8.7c-8.3-5.3-14.8-12.9-23.2-17.8C258.1,7.9,222.9,19,212.5,47.3L212.5,47.3z"/>
	<defs>
		<filter id="Adobe_OpacityMaskFilter" filterUnits="userSpaceOnUse" x="212.6" y="4.1" width="316.8" height="159.8">
			<feColorMatrix  type="matrix" values="1 0 0 0 0  0 1 0 0 0  0 0 1 0 0  0 0 0 1 0"/>
		</filter>
	</defs>
	
		<mask maskUnits="userSpaceOnUse" x="212.6" y="4.1" width="316.8" height="159.8" id="SVGID_00000013166696154982136370000017754813554378033820_">
		<g class="st19">
		</g>
	</mask>
	<path class="st20" d="M212.6,46.9c7.4-32.3,45.7-46.7,74.1-31.3c9.1,4.3,16.1,11.7,24.6,16.7c7.9,4.8,16.5,7.9,25.3,8.7
		s17.9-0.8,26.9-3.4c18-5.3,35.7-14,53.2-22.5c9.3-4.5,19.2-8,29.6-9.8c63.3-10.6,92.7,49.6,80.3,104.1
		c-4.2,19.7-12.5,38.2-23.6,54.5c8.6-17.7,14.9-36.4,17.3-55.6c6.9-47.2-16.9-100.5-71.8-90.5c-9,1.6-17.7,4.9-26.1,9
		c-18.1,8.6-36,17.4-55.7,22.7c-20.3,5.9-43.4,4.2-61-8.7c-8.3-5.3-14.8-12.9-23.2-17.8C258.2,7.4,223,18.6,212.6,46.9L212.6,46.9z"
		/>
</g>
<g id="Calque_7" class="st0">
	<g id="iim_x27_s_00000005945102132297555240000016928437829631074201_" class="st1">
		<g class="st13">
			<g>
				<g>
					<path class="st14" d="M320.2,153.4v24.7H203.8v-24.7H320.2z"/>
				</g>
			</g>
			<g class="st0">
				<g class="st1">
					<path class="st14" d="M238,122.3v70.6h24.7v-70.6C262.7,122.3,238,122.3,238,122.3z"/>
				</g>
			</g>
			<g>
				<g>
					<path class="st14" d="M441.8,155c0-7.7-4.7-12-11.7-12c-7.2,0-11.7,4.3-11.7,12v37.9h-24.7V155c0-7.7-4.5-12-11.6-12
						c-7.3,0-11.8,4.3-11.8,12v37.9h-24.7v-70.6h24.7v9.3c4-5.7,10.9-9.9,20.5-9.9c10.6,0,18.9,4.8,23.5,13c4.8-7.2,13.1-13,23.5-13
						c17.9,0,28.6,11.6,28.6,30.1v41.1h-24.7V155H441.8z"/>
				</g>
			</g>
		</g>
		<g class="st13">
			<g>
				<path class="st14" d="M530.9,192.9c-19.6,0-32.7-10.6-33.7-24.7H521c0.6,4.7,4.5,7.2,9.7,7.2c4.2,0,6.5-2,6.5-4.5
					c0-10.3-37.5-1.9-37.5-27.8c0-12.3,10.2-22.5,29.3-22.5c19.2,0,29.3,10.7,30.9,24.7h-22.3c-0.8-4.4-3.9-7-9.2-7
					c-4,0-6.2,1.6-6.2,4.3c0,10.1,37.6,2,37.7,28.8C560.2,183.6,549.1,192.9,530.9,192.9z"/>
			</g>
		</g>
		<g id="fond_00000142142083933126165730000011932161796340362660_">
			<path class="st17" d="M223.9,109.4c-11,0-19.6-8.8-19.6-22.4c0-13.7,8.6-22.6,19.6-22.6c11.2,0,20,8.8,20,22.6
				C244,100.6,235.1,109.4,223.9,109.4z"/>
			<path class="st9" d="M304.1,121.2c-8.8,0-15.7-7.1-15.7-17.9c0-11,6.9-18.1,15.7-18.1c9,0,16.1,7.1,16.1,18.1
				C320.2,114.1,313.1,121.2,304.1,121.2z"/>
			<path class="st9" d="M503.1,94.4c-0.5,13.4-10,25.6-24.3,31.7l-2.9-5.9c5-3.1,10.5-8.2,14.3-14.5l0,0l0,0l0,0l-6.8-5
				c-4.8-3.5-6.1-7.4-6.1-11.6c0-7,5.6-11.8,12-11.8C493.9,77.1,503.5,81,503.1,94.4z"/>
		</g>
		<g id="contour_00000054268197923464026280000010635256607663222198_" class="st15">
			<path class="st14" d="M244,87.1c0,13.5-8.8,22.4-20,22.4c-11,0-19.6-8.8-19.6-22.4c0-13.7,8.6-22.6,19.6-22.6
				C235.1,64.5,244,73.3,244,87.1 M244.6,87.1c0-13.4-8.7-23.2-20.7-23.2c-11.7,0-20.2,9.8-20.2,23.2c0,13.3,8.5,23,20.2,23
				C235.9,110,244.6,100.4,244.6,87.1L244.6,87.1z"/>
			<path class="st17" d="M320.2,103.3c0,10.8-7.1,17.9-16.1,17.9c-8.8,0-15.7-7.1-15.7-17.9c0-11,6.9-18.1,15.7-18.1
				C313.1,85.2,320.2,92.3,320.2,103.3 M320.7,103.3c0-10.8-7-18.6-16.6-18.6c-9.4,0-16.2,7.8-16.2,18.6c0,10.7,6.8,18.4,16.2,18.4
				C313.7,121.7,320.7,114,320.7,103.3L320.7,103.3z"/>
			<path class="st14" d="M489.3,77.1c4.6,0,14.3,3.8,13.8,17.2s-10,25.6-24.3,31.7l-2.9-5.9c5-3.1,10.5-8.1,14.3-14.5l-6.8-5
				c-4.8-3.5-6.1-7.4-6.1-11.6C477.2,82,482.8,77.1,489.3,77.1 M489.3,76.8c-7,0-12.4,5.4-12.4,12.2c0,5.1,1.9,8.8,6.3,12l6.6,4.7
				c-3.3,5.5-8.4,10.6-13.9,14.1l-0.3,0.2l0.2,0.3l2.9,5.9l0.2,0.3l0.3-0.1c14.6-6.3,24-18.5,24.5-32c0.2-5.6-1.3-10-4.4-13.2
				C495.9,77.9,491.8,76.8,489.3,76.8L489.3,76.8z"/>
		</g>
	</g>
	<g id="Web_Dev_00000005252311512967184510000012667228306782933416_" class="st1">
		<g id="fond_00000081617559490955174220000001614778561522055611_">
			<path class="st9" d="M22.5,170.8l-2.8,15.5h-3.6l-1.1-6.8c0-0.1-0.1-0.3-0.1-0.7s-0.1-0.7-0.1-1c-0.1-0.4-0.1-0.8-0.1-1.2
				s-0.1-0.7-0.1-1c0,0.3-0.1,0.6-0.1,1s-0.1,0.8-0.1,1.2c-0.1,0.4-0.1,0.7-0.1,1s-0.1,0.5-0.1,0.7l-1.1,6.8H9.4l-2.8-15.5h2.9
				l1.2,7.8c0,0.2,0.1,0.5,0.1,0.8c0.1,0.4,0.1,0.7,0.2,1.1c0.1,0.4,0.1,0.8,0.2,1.2c0.1,0.4,0.1,0.7,0.1,1c0-0.4,0.1-0.9,0.2-1.5
				c0.1-0.6,0.1-1.1,0.2-1.7c0.1-0.6,0.2-1.1,0.2-1.6c0.1-0.5,0.1-0.9,0.2-1.2l1-5.9H16l1,5.9c0.1,0.3,0.1,0.7,0.2,1.2
				s0.2,1,0.2,1.6c0.1,0.6,0.2,1.1,0.2,1.7c0.1,0.6,0.1,1.1,0.2,1.5c0-0.4,0.1-0.8,0.2-1.3s0.1-1.1,0.2-1.6s0.1-0.9,0.2-1.2l1.2-7.8
				H22.5z"/>
			<path class="st9" d="M46.5,186.3h-6.7v-15.5h6.7v3.4h-3.6v2.4h3.4v3.4h-3.4v2.9h3.6V186.3z"/>
			<path class="st9" d="M68.2,170.8c1.6,0,2.8,0.3,3.5,1s1,1.6,1,2.9c0,0.7-0.1,1.3-0.3,1.7c-0.2,0.5-0.4,0.8-0.7,1.1
				c-0.3,0.3-0.5,0.5-0.8,0.6v0.1c0.3,0.1,0.6,0.3,0.9,0.5s0.6,0.6,0.8,1.1c0.2,0.5,0.3,1.1,0.3,2c0,1.4-0.4,2.5-1.1,3.3
				c-0.8,0.8-1.8,1.2-3.1,1.2h-4.4v-15.5L68.2,170.8L68.2,170.8z M68.2,176.7c0.5,0,0.9-0.1,1.1-0.4c0.2-0.3,0.3-0.6,0.3-1
				c0-0.9-0.5-1.3-1.4-1.3h-0.8v2.8h0.8V176.7z M67.3,179.8v3.3h1.1c0.5,0,0.9-0.2,1.1-0.5s0.3-0.7,0.3-1.2c0-0.4-0.1-0.8-0.3-1.1
				c-0.2-0.3-0.6-0.5-1.2-0.5H67.3z"/>
			<path class="st9" d="M90,184.5c0-0.8,0.2-1.3,0.5-1.6s0.7-0.5,1.2-0.5c0.4,0,0.8,0.2,1.1,0.5c0.3,0.3,0.5,0.8,0.5,1.6
				c0,0.7-0.2,1.2-0.5,1.5s-0.7,0.5-1.1,0.5c-0.5,0-0.8-0.2-1.2-0.5C90.1,185.7,90,185.2,90,184.5z"/>
			<path class="st9" d="M120.4,178.2c0,1.8-0.2,3.3-0.7,4.5s-1.2,2.1-2.1,2.7c-0.9,0.6-1.9,0.9-3.1,0.9h-3.6v-15.5h3.9
				c1.8,0,3.2,0.6,4.2,1.9C119.9,173.9,120.4,175.8,120.4,178.2z M117.3,178.3c0-2.8-0.8-4.2-2.5-4.2h-0.9v8.7h0.7
				c0.9,0,1.6-0.4,2-1.1C117.1,181,117.3,179.9,117.3,178.3z"/>
			<path class="st9" d="M144.9,186.3h-6.7v-15.5h6.7v3.4h-3.6v2.4h3.4v3.4h-3.4v2.9h3.6V186.3z"/>
			<path class="st9" d="M172.4,170.8l-3.7,15.5h-3.6l-3.7-15.5h3.4l1.5,7.9c0.1,0.3,0.1,0.7,0.2,1.1c0.1,0.5,0.1,0.9,0.2,1.4
				c0.1,0.5,0.1,0.8,0.1,1.1c0-0.3,0.1-0.7,0.1-1.1c0.1-0.5,0.1-0.9,0.2-1.4c0.1-0.5,0.1-0.8,0.2-1.1l1.6-7.9H172.4z"/>
		</g>
		<g id="contour_00000119104437613589229930000002078792409097119158_" class="st15">
			<path class="st16" d="M22.5,170.8l-2.8,15.5h-3.6l-1.1-6.8c0-0.1-0.1-0.3-0.1-0.7c0-0.3-0.1-0.7-0.1-1c-0.1-0.4-0.1-0.8-0.1-1.2
				s-0.1-0.7-0.1-1c0,0.3-0.1,0.6-0.1,1s-0.1,0.8-0.1,1.2c-0.1,0.4-0.1,0.7-0.1,1s-0.1,0.5-0.1,0.7l-1.1,6.8H9.4l-2.8-15.5h2.9
				l1.2,7.8c0,0.2,0.1,0.5,0.1,0.8c0.1,0.4,0.1,0.7,0.2,1.1c0.1,0.4,0.1,0.8,0.2,1.2c0.1,0.4,0.1,0.7,0.1,1c0-0.4,0.1-0.9,0.2-1.5
				c0.1-0.6,0.1-1.1,0.2-1.7c0.1-0.6,0.2-1.1,0.2-1.6c0.1-0.5,0.1-0.9,0.2-1.2l1-5.9H16l1,5.9c0.1,0.3,0.1,0.7,0.2,1.2
				s0.2,1,0.2,1.6c0.1,0.6,0.2,1.1,0.2,1.7c0.1,0.6,0.1,1.1,0.2,1.5c0-0.4,0.1-0.8,0.2-1.3s0.1-1.1,0.2-1.6s0.1-0.9,0.2-1.2l1.2-7.8
				H22.5 M22.5,170.4h-2.9c-0.1,0-0.2,0.1-0.3,0.3l-1.2,7.8c0,0.3-0.1,0.7-0.2,1.2l-0.1,0.7c0-0.3-0.1-0.6-0.1-1
				c-0.1-0.6-0.2-1.1-0.2-1.6c-0.1-0.5-0.1-0.9-0.2-1.2l-1-5.9c0-0.2-0.1-0.3-0.3-0.3h-2.8c-0.1,0-0.2,0.1-0.3,0.3l-1,5.9l-0.2,0.9
				v0.3c-0.1,0.5-0.2,1-0.2,1.6c0,0.3-0.1,0.7-0.1,1l-0.2-1.1c-0.1-0.4-0.1-0.6-0.1-0.8l-1.2-7.8c0-0.2-0.1-0.3-0.3-0.3H6.7
				c-0.1,0-0.2,0.1-0.2,0.2c-0.1,0.1-0.1,0.2,0,0.3l2.8,15.5c0,0.2,0.1,0.3,0.3,0.3H13c0.1,0,0.2-0.1,0.3-0.3l1.1-6.8v-0.2l0.1-0.5
				c0-0.3,0.1-0.6,0.1-0.9l0.1,0.9c0,0.3,0.1,0.5,0.1,0.7l1.1,6.8c0,0.2,0.1,0.3,0.3,0.3h3.6c0.1,0,0.2-0.1,0.3-0.3l2.8-15.5
				c0-0.1,0-0.2,0-0.3C22.7,170.4,22.6,170.4,22.5,170.4L22.5,170.4z"/>
			<path class="st16" d="M46.5,170.8v3.4h-3.6v2.4h3.4v3.4h-3.4v2.9h3.6v3.4h-6.7v-15.5L46.5,170.8 M46.5,170.4h-6.7
				c-0.2,0-0.3,0.2-0.3,0.4v15.5c0,0.2,0.1,0.4,0.3,0.4h6.7c0.2,0,0.3-0.2,0.3-0.4v-3.4c0-0.2-0.1-0.4-0.3-0.4h-3.4v-2.2h3.1
				c0.2,0,0.3-0.2,0.3-0.4v-3.4c0-0.2-0.1-0.4-0.3-0.4h-3.1v-1.7h3.4c0.2,0,0.3-0.2,0.3-0.4v-3.4C46.7,170.5,46.6,170.4,46.5,170.4
				L46.5,170.4z"/>
			<path class="st16" d="M68.2,170.8c1.6,0,2.8,0.3,3.5,1s1,1.6,1,2.9c0,0.7-0.1,1.3-0.3,1.7c-0.2,0.5-0.4,0.8-0.7,1.1
				c-0.3,0.3-0.5,0.5-0.8,0.6v0.1c0.3,0.1,0.6,0.3,0.9,0.5s0.6,0.6,0.8,1.1c0.2,0.5,0.3,1.1,0.3,2c0,1.4-0.4,2.5-1.1,3.3
				c-0.8,0.8-1.8,1.2-3.1,1.2h-4.4v-15.5L68.2,170.8 M67.3,176.7h0.9c0.5,0,0.9-0.1,1.1-0.4s0.3-0.6,0.3-1c0-0.9-0.5-1.3-1.4-1.3
				h-0.8L67.3,176.7 M67.3,183h1.1c0.5,0,0.9-0.2,1.1-0.5s0.3-0.7,0.3-1.2c0-0.4-0.1-0.8-0.3-1.1c-0.2-0.3-0.6-0.5-1.2-0.5h-1V183
				 M68.2,170.4h-3.9c-0.2,0-0.3,0.2-0.3,0.4v15.5c0,0.2,0.1,0.4,0.3,0.4h4.4c1.4,0,2.5-0.4,3.3-1.3c0.8-0.9,1.3-2.1,1.3-3.6
				c0-0.9-0.1-1.6-0.3-2.2c-0.2-0.5-0.5-1-0.9-1.2c-0.1-0.1-0.2-0.2-0.4-0.3c0.1-0.1,0.2-0.2,0.3-0.3c0.3-0.3,0.5-0.7,0.7-1.3
				c0.2-0.5,0.3-1.2,0.3-1.9c0-1.4-0.4-2.5-1.2-3.2C71.1,170.7,69.9,170.4,68.2,170.4L68.2,170.4z M67.6,174.3h0.6
				c1.2,0,1.2,0.7,1.2,0.9c0,0.3-0.1,0.6-0.2,0.8s-0.4,0.3-0.9,0.3h-0.6L67.6,174.3L67.6,174.3z M67.6,180.2h0.7
				c0.5,0,0.8,0.1,1,0.4c0.2,0.3,0.2,0.5,0.2,0.9s-0.1,0.7-0.2,0.9c-0.2,0.2-0.5,0.3-0.9,0.3h-0.8L67.6,180.2L67.6,180.2z"/>
			<path class="st16" d="M91.6,182.5c0.4,0,0.8,0.2,1.1,0.5c0.3,0.3,0.5,0.8,0.5,1.6c0,0.7-0.2,1.2-0.5,1.5s-0.7,0.5-1.1,0.5
				c-0.5,0-0.8-0.2-1.2-0.5c-0.3-0.3-0.5-0.8-0.5-1.5c0-0.8,0.2-1.3,0.5-1.6C90.8,182.6,91.2,182.5,91.6,182.5 M91.6,182.1
				c-0.5,0-0.9,0.2-1.3,0.5c-0.4,0.4-0.6,1-0.6,1.9c0,0.8,0.2,1.5,0.6,1.9s0.8,0.5,1.3,0.5s0.9-0.2,1.3-0.6c0.4-0.4,0.6-1,0.6-1.9
				s-0.2-1.5-0.6-1.9C92.5,182.3,92.1,182.1,91.6,182.1L91.6,182.1z"/>
			<path class="st16" d="M114.8,170.8c1.8,0,3.2,0.6,4.2,1.9c1,1.3,1.5,3.1,1.5,5.5c0,1.8-0.2,3.3-0.7,4.5s-1.2,2.1-2.1,2.7
				c-0.9,0.6-1.9,0.9-3.1,0.9H111v-15.5L114.8,170.8 M113.9,182.8h0.7c0.9,0,1.6-0.4,2-1.1c0.4-0.7,0.6-1.9,0.6-3.4
				c0-2.8-0.8-4.2-2.5-4.2h-0.9v8.7 M114.8,170.4h-3.9c-0.2,0-0.3,0.2-0.3,0.4v15.5c0,0.2,0.1,0.4,0.3,0.4h3.6
				c1.2,0,2.3-0.3,3.2-0.9c0.9-0.6,1.7-1.6,2.2-2.9c0.5-1.3,0.8-2.8,0.8-4.7c0-2.5-0.5-4.5-1.6-5.8
				C118.1,171,116.7,170.4,114.8,170.4L114.8,170.4z M114.2,174.5h0.6c1.5,0,2.2,1.2,2.2,3.8c0,1.4-0.2,2.5-0.6,3.1
				c-0.4,0.7-1,1-1.8,1h-0.4L114.2,174.5L114.2,174.5z"/>
			<path class="st16" d="M144.9,170.8v3.4h-3.6v2.4h3.4v3.4h-3.4v2.9h3.6v3.4h-6.7v-15.5L144.9,170.8 M144.9,170.4h-6.7
				c-0.2,0-0.3,0.2-0.3,0.4v15.5c0,0.2,0.1,0.4,0.3,0.4h6.7c0.2,0,0.3-0.2,0.3-0.4v-3.4c0-0.2-0.1-0.4-0.3-0.4h-3.4v-2.2h3.1
				c0.2,0,0.3-0.2,0.3-0.4v-3.4c0-0.2-0.1-0.4-0.3-0.4h-3.1v-1.7h3.4c0.2,0,0.3-0.2,0.3-0.4v-3.4
				C145.2,170.5,145.1,170.4,144.9,170.4L144.9,170.4z"/>
			<path class="st16" d="M172.4,170.8l-3.7,15.5h-3.6l-3.7-15.5h3.4l1.5,7.9c0.1,0.3,0.1,0.7,0.2,1.1c0.1,0.5,0.1,0.9,0.2,1.4
				c0.1,0.5,0.1,0.8,0.1,1.1c0-0.3,0.1-0.7,0.1-1.1c0.1-0.5,0.1-0.9,0.2-1.4c0.1-0.5,0.1-0.8,0.2-1.1l1.6-7.9H172.4 M172.4,170.4
				H169c-0.1,0-0.2,0.1-0.3,0.3l-1.6,7.9c-0.1,0.3-0.1,0.7-0.2,1.1c0,0.1,0,0.2,0,0.3c0-0.1,0-0.2-0.1-0.4c-0.1-0.5-0.1-0.9-0.2-1.1
				l-1.5-7.9c0-0.2-0.1-0.3-0.3-0.3h-3.4c-0.1,0-0.2,0.1-0.2,0.2c-0.1,0.1-0.1,0.2,0,0.4l3.7,15.5c0,0.2,0.1,0.3,0.3,0.3h3.6
				c0.1,0,0.2-0.1,0.3-0.3l3.7-15.5c0-0.1,0-0.2,0-0.4C172.6,170.4,172.5,170.4,172.4,170.4L172.4,170.4z"/>
		</g>
	</g>
	<path id="M_contour_00000080927317405209560360000001925234181504961938_" class="st18" d="M127.6,32.3l-0.1,0.3v0.1L95.2,118
		l-6.9-17.7L62.2,32.6l-0.1-0.3H16.7v133.8h37.8v-72L79,165.7v0.1l0.1,0.3h31.5l0.1-0.3l10.7-31.4L135,94.7v71.4h37.8V32.3H127.6z
		 M172.4,165.7h-37V92.3l-14,40.9l-11.1,32.5H79.4l0,0l-25.3-74v74h-37v-133h44.7l26.3,68.1l7.1,18.3l32.6-86.4h44.6V165.7z"/>
	<g class="st21">
		<rect x="3.3" y="32.5" class="st14" width="13.2" height="133.4"/>
		<path class="st14" d="M16.3,32.7v133H3.5v-133L16.3,32.7 M16.7,32.3H3.1v133.8h13.6V32.3L16.7,32.3z"/>
	</g>
	<g class="st21">
		<polygon class="st14" points="65.7,165.9 54.7,133.7 54.7,95.3 78.8,165.9 		"/>
		<path class="st14" d="M54.9,96.5l23.7,69.2H65.8l-10.9-32V96.5 M54.5,94.1v39.7l11.1,32.3h13.6L54.5,94.1L54.5,94.1z"/>
	</g>
	<g class="st21">
		<polygon class="st14" points="88.6,100.3 114.2,32.5 127.3,32.5 95.2,117.4 		"/>
		<path class="st14" d="M127,32.7l-31.8,84.2l-6.4-16.6l25.5-67.6L127,32.7 M127.6,32.3H114l-25.7,67.9l6.9,17.7L127.6,32.3
			L127.6,32.3z"/>
	</g>
	<g class="st21">
		<polygon class="st14" points="121.6,165.9 121.6,134.5 134.8,95.9 134.8,165.9 		"/>
		<path class="st14" d="M134.6,97.1v68.7h-12.8v-31.2L134.6,97.1 M135,94.7l-13.6,39.8v31.7H135V94.7L135,94.7z"/>
	</g>
	<polygon id="M_blanc_00000096765378135437855270000015508023191302784164_" class="st4" points="172.4,32.7 172.4,165.7 
		135.4,165.7 135.4,92.3 110.3,165.7 79.4,165.7 54.1,91.7 54.1,165.7 17.1,165.7 17.1,32.7 61.8,32.7 95.2,119.1 127.9,32.7 	"/>
	<defs>
		
			<filter id="Adobe_OpacityMaskFilter_00000008136826400567173630000006021347687904996787_" filterUnits="userSpaceOnUse" x="224.1" y="5" width="380.7" height="180.1">
			<feColorMatrix  type="matrix" values="1 0 0 0 0  0 1 0 0 0  0 0 1 0 0  0 0 0 1 0"/>
		</filter>
	</defs>
	
		<mask maskUnits="userSpaceOnUse" x="224.1" y="5" width="380.7" height="180.1" id="SVGID_00000123436500258656500540000017603974392499558545_" class="st1">
		<g style="filter:url(#Adobe_OpacityMaskFilter_00000008136826400567173630000006021347687904996787_);">
		</g>
	</mask>
	<path class="st23" d="M224.1,53.3C233,17,279,0.7,313.2,18.1c10.9,4.9,19.3,13.2,29.6,18.8c9.5,5.4,19.8,8.9,30.4,9.8
		c10.6,0.9,21.6-0.9,32.3-3.8c21.7-6,42.8-15.7,63.9-25.4c11.2-5,23.1-9,35.6-11.1c76-11.9,111.4,55.9,96.5,117.3
		c-5.1,22.2-15,43.1-28.3,61.4c10.4-20,17.9-41.1,20.7-62.6c8.3-53.3-20.3-113.2-86.2-102c-10.8,1.8-21.3,5.5-31.4,10.1
		c-21.8,9.7-43.3,19.6-66.9,25.6c-24.4,6.7-52.1,4.7-73.2-9.8c-10-6-17.8-14.5-27.9-20C278.9,8.9,236.6,21.4,224.1,53.3L224.1,53.3z
		"/>
</g>
<g id="logo_simple" class="st0">
	<g id="ombrage_00000127745537485956224350000014798674315244040336_" class="st1">
		<path class="st17" d="M354.2,235.7c4,1.5,10.6,2.7,15.7,3.5c-4.7,0.6-10.7,1.4-15.5,2.4l-0.7,0.2v61.8h-23.4v-87.2l23.4-68.5v20.8
			l0.6,0.2c4.6,1.5,12.6,2.5,19.5,3.1c-6.2,0.6-13.5,1.4-19.4,2.8l-0.7,0.2v60.7L354.2,235.7z"/>
		<path class="st17" d="M231.6,302.9l0.2,0.6h-23.5l-0.2-0.6l-30-87.7v-68.7l21.5,62.8l0.1,0.4l0.4,0.1c2.8,0.9,6,1.7,8.9,2.2
			c-2.2,0.2-4.7,0.5-7.1,0.8l-1,0.2l0.3,1l19.3,56.3l0.1,0.5l0.5,0.1c5.3,1.2,12.5,2.2,18.9,2.9c-5.3,0.2-11.3,0.6-16.8,1.2l-1,0.1
			l0.3,1L231.6,302.9z"/>
		<path class="st17" d="M337.5,11.8l-0.2,0.6L267,198.6l-7.1-18.5c11.9-16.8,24-40.7,13.1-58.4c-5-8.6-27.5-12.3-27.7-12.4L237,108
			l8.4-0.4c13.9-0.6,35.7-2.1,38.7-4.1c11.8-7.7,20.7-30.6,20.8-45.9c0-5.4-1.2-9.2-3.4-10.6c-4.2-2.8-17.4-4.7-17.5-4.7l-7.6-1.1
			l7.7-0.6c6.9-0.5,25.2-2.3,28.1-4.5c7.6-5.6,9.5-23.2,9.5-23.4l0.1-0.7h15.7V11.8z"/>
		<path class="st17" d="M95.8,243.1v-65.9l0.7-0.2c4.8-1,11-1.6,16.2-1.9c-5.7-0.9-12.6-2.2-16.4-4.1l-0.5-0.2V96.6l0.6-0.1
			c15.6-4.2,38.3-6.1,51.2-6.8c-13.9-1.9-39-5.9-51.3-10.9l-0.5-0.2V39l0.7-0.1c3.5-0.6,7.3-1,10.4-1.4c-3.3-0.5-7.1-1.2-10.5-2
			l-0.6-0.2V11.8h-15v0.9c0,0.2-0.1,20.3-8.2,28.4C69.7,44,46.1,46.9,31,48.2l-7,0.6l7,1.1c0.4,0.1,38.4,6.3,45.7,15.8
			c7.1,9.1,7.5,39.4-4,50c-11.8,10.8-35.4,12.8-35.6,12.8l-8.1,0.6l8.1,1.1c0.2,0,24.3,3.3,35.7,11.8c6.6,5,10.7,12.1,11.8,20.4
			c1.4,11.3-2.8,23.9-12,35.6c-10.9,13.8-75.2,21.1-75.9,21.2l-8.2,0.9l8.2,0.8c0.7,0.1,64.2,6.2,76,16.2c6.6,5.5,7,14.5,6.6,19.4
			c-0.6,8.3-3.8,15-6.5,16.7c-6.1,3.9-26.5,7.9-26.7,7.9l-7.1,1.4l7.3,0.3c0.2,0,20.1,0.8,26.6,5.3c6.3,4.3,6.1,14.5,6.1,14.6v0.9
			h17v-48.4l0.7-0.1c13.3-2.1,31.9-3.2,44.7-3.7c-14.2-1.4-34.8-4-44.9-7.9L95.8,243.1z M55.1,280c-1.4,0.3-2.8,0.7-3.9,0.9
			C52.3,280.6,53.7,280.3,55.1,280c2.1-0.5,4.5-1.1,6.7-1.8C59.6,278.9,57.3,279.5,55.1,280z"/>
	</g>
	<path id="M_contour_00000006698440214685893880000005681058916078791827_" class="st18" d="M337.5,11.8l-0.2,0.6L267,198.6
		l-7.1-18.5l-65-167.7l-0.2-0.6H95.8v23.5l0.6,0.2c3.4,0.8,7.3,1.5,10.5,2c-3.1,0.3-6.9,0.8-10.4,1.4L95.8,39v39.6l0.5,0.2
		c12.3,5,37.4,8.9,51.3,10.9c-12.9,0.7-35.6,2.6-51.2,6.8l-0.6,0.1v74.1l0.5,0.2c3.8,1.9,10.7,3.3,16.4,4.1
		c-5.1,0.3-11.4,1-16.2,1.9l-0.7,0.2V243l0.6,0.2c10.1,3.9,30.7,6.5,44.9,7.9c-12.9,0.5-31.4,1.6-44.7,3.7l-0.7,0.1v48.4h82.3v-157
		l21.5,62.8l0.1,0.4l0.4,0.1c2.8,0.9,6,1.7,8.9,2.2c-2.2,0.2-4.7,0.5-7.1,0.8l-1,0.2l0.3,1l19.3,56.3l0.1,0.5l0.5,0.1
		c5.3,1.2,12.5,2.2,18.9,2.9c-5.3,0.2-11.3,0.6-16.8,1.2l-1,0.1l0.3,1l9.2,26.9l0.2,0.6h68.7l0.2-0.6l29.6-86.6l23.4-68.5v20.8
		l0.6,0.2c4.6,1.5,12.6,2.5,19.5,3.1c-6.2,0.6-13.5,1.4-19.4,2.8l-0.7,0.2v60.7l0.6,0.2c4,1.5,10.6,2.7,15.7,3.5
		c-4.7,0.6-10.7,1.4-15.5,2.4l-0.7,0.2v61.8h82V11.8H337.5z M435.2,302.6h-80.7v-60.2c9.1-2,22.6-3.1,22.6-3.1s-15.5-1.8-22.6-4.5
		v-59.4c12.7-3,32.3-3.6,32.3-3.6s-23.2-1-32.3-3.9v-25.3l-24.3,71.1l-30.4,88.9h-67.5l-9.2-26.9c13.5-1.4,30.6-1.7,30.6-1.7
		s-21-1.4-32.6-4.2L202,213.6c7.3-1.1,15.1-1.3,15.1-1.3s-9.8-1.1-16.7-3.4l-23.1-67.6v161.3H96.7v-46.8c22.4-3.6,59.4-4.2,59.4-4.2
		s-43.5-3-59.4-9.1v-64.7c9.9-2.1,25.8-2.4,25.8-2.4s-18.7-1.8-25.8-5.3V97.3c22.8-6.1,60.7-7.2,60.7-7.2S113.9,85,96.7,78V39.8
		c8.3-1.4,17.6-2.1,17.6-2.1s-10-1.1-17.6-3v-22h97.5l65,168.3l7.8,20l71.1-188.3h97.1V302.6z"/>
	<path id="M_blanc_00000036937696626112102820000008275895098461498000_" class="st4" d="M435.2,12.7v290h-80.7v-60.2
		c9.1-2,22.6-3.1,22.6-3.1s-15.5-1.8-22.6-4.5v-59.4c12.7-3,32.3-3.6,32.3-3.6s-23.2-1-32.3-3.9v-25.3l-54.7,160h-67.5l-9.2-26.9
		c13.5-1.4,30.6-1.7,30.6-1.7s-21-1.4-32.6-4.2L202,213.6c7.3-1.1,15.1-1.3,15.1-1.3s-9.8-1.1-16.7-3.4l-23.1-67.6v161.3H96.7v-46.8
		c22.4-3.6,59.4-4.2,59.4-4.2s-43.5-3-59.4-9.1v-64.7c9.9-2.1,25.8-2.4,25.8-2.4s-18.7-1.8-25.8-5.3V97.3
		c22.8-6.1,60.7-7.2,60.7-7.2S113.9,85,96.7,78V39.8c8.3-1.4,17.6-2.1,17.6-2.1s-10-1.1-17.6-3v-22h97.5L267,201l71.1-188.3
		C338.1,12.7,435.2,12.7,435.2,12.7z"/>
</g>
<g id="logo-web-dev" class="st0">
	<g id="Web_Dev_00000002348931136469404340000007913780928981095053_" class="st1">
		<g id="fond_00000111165378881775737370000005947492420465862821_">
			<path class="st9" d="M179.4,418.7l-7.2,28.5h-9.3l-2.8-12.4c-0.1-0.2-0.1-0.6-0.2-1.2c-0.1-0.6-0.2-1.2-0.4-1.9
				c-0.2-0.7-0.3-1.4-0.4-2.1c-0.1-0.7-0.2-1.3-0.2-1.8c-0.1,0.5-0.1,1.1-0.3,1.8c-0.1,0.7-0.3,1.4-0.4,2.1
				c-0.1,0.7-0.3,1.4-0.4,1.9c-0.1,0.6-0.2,1-0.3,1.2l-2.8,12.4h-9.3l-7.2-28.5h7.6L149,433c0.1,0.3,0.2,0.8,0.3,1.5
				s0.3,1.3,0.4,2.1c0.1,0.7,0.3,1.5,0.4,2.2c0.1,0.7,0.2,1.3,0.3,1.8c0.1-0.8,0.2-1.7,0.4-2.7s0.4-2.1,0.6-3.1
				c0.2-1.1,0.4-2,0.6-2.9c0.2-0.9,0.4-1.6,0.5-2.2l2.6-10.8h7.3l2.5,10.8c0.1,0.6,0.3,1.3,0.5,2.2c0.2,0.9,0.4,1.9,0.6,3
				c0.2,1.1,0.4,2.1,0.6,3.1c0.2,1,0.3,1.9,0.4,2.7c0.1-0.7,0.2-1.5,0.4-2.5s0.4-1.9,0.6-2.9c0.2-0.9,0.3-1.7,0.5-2.1l3.2-14.3h7.7
				V418.7z"/>
			<path class="st9" d="M241.8,447.1h-17.4v-28.5h17.4v6.2h-9.5v4.5h8.8v6.2h-8.8v5.4h9.5V447.1z"/>
			<path class="st9" d="M298.4,418.7c4.2,0,7.2,0.6,9.1,1.8c1.8,1.2,2.7,3,2.7,5.3c0,1.2-0.2,2.3-0.7,3.2c-0.5,0.9-1,1.5-1.7,2.1
				c-0.7,0.5-1.4,0.8-2.1,1v0.2c0.8,0.2,1.6,0.5,2.4,1c0.8,0.4,1.5,1.1,2,2s0.8,2.1,0.8,3.6c0,2.6-1,4.6-3,6.1s-4.7,2.2-8.2,2.2
				h-11.4v-28.5L298.4,418.7L298.4,418.7z M298.5,429.6c1.3,0,2.2-0.3,2.8-0.8c0.5-0.5,0.8-1.2,0.8-1.9c0-1.6-1.2-2.4-3.7-2.4h-2.2
				v5.1L298.5,429.6L298.5,429.6z M296.1,435.2v6h2.8c1.4,0,2.3-0.3,2.9-0.9c0.5-0.6,0.8-1.3,0.8-2.2c0-0.8-0.3-1.5-0.8-2.1
				s-1.6-0.9-3-0.9h-2.7V435.2z"/>
			<path class="st9" d="M355.2,443.9c0-1.4,0.4-2.3,1.2-2.9c0.8-0.6,1.8-0.8,3-0.8c1.1,0,2.1,0.3,2.9,0.8c0.8,0.6,1.2,1.5,1.2,2.9
				c0,1.3-0.4,2.3-1.2,2.8c-0.8,0.6-1.8,0.9-2.9,0.9c-1.2,0-2.2-0.3-3-0.9C355.6,446.1,355.2,445.2,355.2,443.9z"/>
			<path class="st9" d="M434.6,432.3c0,3.3-0.6,6-1.9,8.2s-3,3.9-5.3,4.9c-2.3,1.1-5,1.6-8.1,1.6h-9.5v-28.5h10.1
				c4.7,0,8.4,1.2,10.9,3.5C433.3,424.5,434.6,427.9,434.6,432.3z M426.4,432.6c0-5.1-2.1-7.7-6.4-7.7h-2.3v15.9h1.8
				c2.4,0,4.2-0.7,5.3-2C425.8,437.4,426.4,435.4,426.4,432.6z"/>
			<path class="st9" d="M498.4,447.1H481v-28.5h17.4v6.2H489v4.5h8.8v6.2H489v5.4h9.5v6.2H498.4z"/>
			<path class="st9" d="M570.1,418.7l-9.6,28.5h-9.3l-9.5-28.5h8.9l4,14.4c0.1,0.5,0.3,1.2,0.5,2.1c0.2,0.8,0.4,1.7,0.6,2.5
				c0.2,0.8,0.3,1.5,0.3,2.1c0.1-0.5,0.2-1.2,0.3-2.1s0.3-1.7,0.5-2.5s0.3-1.5,0.5-2l4.1-14.5H570.1z"/>
		</g>
		<g id="contour_00000147901710053653635630000007303511613397439133_" class="st15">
			<path class="st16" d="M179.4,418.7l-7.2,28.5h-9.3l-2.8-12.4c-0.1-0.2-0.1-0.6-0.2-1.2c-0.1-0.6-0.2-1.2-0.4-1.9
				c-0.2-0.7-0.3-1.4-0.4-2.1c-0.1-0.7-0.2-1.3-0.2-1.8c-0.1,0.5-0.1,1.1-0.3,1.8c-0.1,0.7-0.3,1.4-0.4,2.1
				c-0.1,0.7-0.3,1.4-0.4,1.9c-0.1,0.6-0.2,1-0.3,1.2l-2.8,12.4h-9.3l-7.2-28.5h7.6L149,433c0.1,0.3,0.2,0.8,0.3,1.5
				s0.3,1.3,0.4,2.1c0.1,0.7,0.3,1.5,0.4,2.2c0.1,0.7,0.2,1.3,0.3,1.8c0.1-0.8,0.2-1.7,0.4-2.7s0.4-2.1,0.6-3.1
				c0.2-1.1,0.4-2,0.6-2.9c0.2-0.9,0.4-1.6,0.5-2.2l2.6-10.8h7.3l2.5,10.8c0.1,0.6,0.3,1.3,0.5,2.2c0.2,0.9,0.4,1.9,0.6,3
				c0.2,1.1,0.4,2.1,0.6,3.1c0.2,1,0.3,1.9,0.4,2.7c0.1-0.7,0.2-1.5,0.4-2.5s0.4-1.9,0.6-2.9c0.2-0.9,0.3-1.7,0.5-2.1l3.2-14.3h7.7
				 M179.4,417.9h-7.6c-0.3,0-0.6,0.2-0.7,0.6l-3.2,14.3c-0.1,0.5-0.3,1.2-0.5,2.1l-0.3,1.3c-0.1-0.6-0.2-1.2-0.4-1.8
				c-0.2-1.1-0.4-2.1-0.6-3c-0.2-0.9-0.4-1.7-0.5-2.2l-2.5-10.8c-0.1-0.3-0.4-0.6-0.7-0.6h-7.3c-0.3,0-0.6,0.2-0.7,0.5l-2.6,10.8
				l-0.4,1.7l-0.1,0.5c-0.2,0.9-0.4,1.9-0.6,2.9c-0.1,0.6-0.3,1.2-0.4,1.8l-0.4-2c-0.1-0.7-0.3-1.2-0.3-1.5l-3.2-14.3
				c-0.1-0.3-0.4-0.6-0.7-0.6h-7.6c-0.2,0-0.4,0.1-0.6,0.3c-0.1,0.2-0.2,0.4-0.1,0.6l7.2,28.5c0.1,0.3,0.4,0.5,0.7,0.5h9.3
				c0.3,0,0.6-0.2,0.7-0.6l2.8-12.4l0.1-0.3l0.2-0.9c0.1-0.5,0.2-1,0.3-1.7l0.3,1.7c0.1,0.6,0.2,1,0.3,1.2l2.8,12.4
				c0.1,0.3,0.4,0.6,0.7,0.6h9.3c0.3,0,0.6-0.2,0.7-0.5l7.2-28.5c0.1-0.2,0-0.4-0.1-0.6C179.9,418,179.6,417.9,179.4,417.9
				L179.4,417.9z"/>
			<path class="st16" d="M241.8,418.7v6.2h-9.5v4.5h8.8v6.2h-8.8v5.4h9.5v6.3h-17.4v-28.5h17.4 M241.8,417.9h-17.4
				c-0.4,0-0.7,0.3-0.7,0.7v28.5c0,0.4,0.3,0.7,0.7,0.7h17.4c0.4,0,0.7-0.3,0.7-0.7v-6.3c0-0.4-0.3-0.7-0.7-0.7h-8.7v-4h8.1
				c0.4,0,0.7-0.3,0.7-0.7v-6.2c0-0.4-0.3-0.7-0.7-0.7h-8.1v-3h8.7c0.4,0,0.7-0.3,0.7-0.7v-6.2C242.5,418.3,242.2,417.9,241.8,417.9
				L241.8,417.9z"/>
			<path class="st16" d="M298.4,418.7c4.2,0,7.2,0.6,9.1,1.8c1.8,1.2,2.7,3,2.7,5.3c0,1.2-0.2,2.3-0.7,3.2c-0.5,0.9-1,1.5-1.7,2.1
				c-0.7,0.5-1.4,0.8-2.1,1v0.2c0.8,0.2,1.6,0.5,2.4,1c0.8,0.4,1.5,1.1,2,2s0.8,2.1,0.8,3.6c0,2.6-1,4.6-3,6.1s-4.7,2.2-8.2,2.2
				h-11.4v-28.5L298.4,418.7 M296.1,429.6h2.4c1.3,0,2.2-0.3,2.8-0.8s0.8-1.2,0.8-1.9c0-1.6-1.2-2.4-3.7-2.4h-2.2L296.1,429.6
				 M296.1,441.2h2.8c1.4,0,2.3-0.3,2.9-0.9c0.5-0.6,0.8-1.3,0.8-2.2c0-0.8-0.3-1.5-0.8-2.1s-1.6-0.9-3-0.9h-2.6L296.1,441.2
				 M298.4,417.9h-10.2c-0.4,0-0.7,0.3-0.7,0.7v28.5c0,0.4,0.3,0.7,0.7,0.7h11.4c3.6,0,6.5-0.8,8.6-2.4c2.2-1.6,3.3-3.9,3.3-6.7
				c0-1.6-0.3-3-0.9-4s-1.4-1.8-2.2-2.3c-0.3-0.2-0.6-0.3-1-0.5c0.3-0.2,0.5-0.3,0.8-0.5c0.8-0.6,1.4-1.3,1.9-2.3s0.8-2.1,0.8-3.5
				c0-2.5-1-4.5-3-5.8C305.9,418.6,302.8,417.9,298.4,417.9L298.4,417.9z M296.8,425.2h1.5c3,0,3,1.2,3,1.7c0,0.6-0.2,1-0.6,1.4
				s-1.2,0.6-2.3,0.6h-1.7v-3.7H296.8z M296.8,435.9h1.9c1.2,0,2.1,0.2,2.5,0.7s0.6,1,0.6,1.6c0,0.7-0.2,1.2-0.6,1.7
				c-0.4,0.4-1.2,0.6-2.4,0.6h-2.1v-4.6H296.8z"/>
			<path class="st16" d="M359.5,440.1c1.1,0,2.1,0.3,2.9,0.8c0.8,0.6,1.2,1.5,1.2,2.9c0,1.3-0.4,2.3-1.2,2.8
				c-0.8,0.6-1.8,0.9-2.9,0.9c-1.2,0-2.2-0.3-3-0.9s-1.2-1.5-1.2-2.8c0-1.4,0.4-2.3,1.2-2.9C357.3,440.4,358.3,440.1,359.5,440.1
				 M359.5,439.4c-1.3,0-2.5,0.3-3.4,1c-1,0.7-1.6,1.9-1.6,3.5c0,1.5,0.5,2.7,1.6,3.4c1,0.7,2.1,1,3.4,1s2.4-0.3,3.3-1
				c1-0.7,1.5-1.9,1.5-3.4c0-1.6-0.5-2.8-1.5-3.5C361.8,439.7,360.7,439.4,359.5,439.4L359.5,439.4z"/>
			<path class="st16" d="M419.8,418.7c4.7,0,8.4,1.2,10.9,3.5s3.8,5.7,3.8,10.1c0,3.3-0.6,6-1.9,8.2s-3,3.9-5.3,4.9
				c-2.3,1.1-5,1.6-8.1,1.6h-9.5v-28.5h10.1 M417.6,440.8h1.8c2.4,0,4.2-0.7,5.3-2c1.1-1.4,1.7-3.4,1.7-6.2c0-5.1-2.1-7.7-6.4-7.7
				h-2.3v15.9 M419.8,417.9h-10.1c-0.4,0-0.7,0.3-0.7,0.7v28.5c0,0.4,0.3,0.7,0.7,0.7h9.5c3.2,0,6-0.6,8.4-1.7s4.3-2.9,5.7-5.2
				c1.3-2.3,2-5.2,2-8.6c0-4.6-1.4-8.2-4-10.6C428.6,419.2,424.7,417.9,419.8,417.9L419.8,417.9z M418.4,425.6h1.6
				c3.9,0,5.7,2.2,5.7,7c0,2.6-0.5,4.5-1.5,5.8c-1,1.2-2.5,1.8-4.7,1.8h-1v-14.6H418.4z"/>
			<path class="st16" d="M498.4,418.7v6.2H489v4.5h8.8v6.2H489v5.4h9.5v6.3h-17.4v-28.5h17.3 M498.4,417.9H481
				c-0.4,0-0.7,0.3-0.7,0.7v28.5c0,0.4,0.3,0.7,0.7,0.7h17.4c0.4,0,0.7-0.3,0.7-0.7v-6.3c0-0.4-0.3-0.7-0.7-0.7h-8.7v-4h8.1
				c0.4,0,0.7-0.3,0.7-0.7v-6.2c0-0.4-0.3-0.7-0.7-0.7h-8.1v-3h8.7c0.4,0,0.7-0.3,0.7-0.7v-6.2C499.1,418.3,498.8,417.9,498.4,417.9
				L498.4,417.9z"/>
			<path class="st16" d="M570.1,418.7l-9.6,28.5h-9.3l-9.5-28.5h8.9l4,14.4c0.1,0.5,0.3,1.2,0.5,2.1c0.2,0.8,0.4,1.7,0.6,2.5
				c0.2,0.8,0.3,1.5,0.3,2.1c0.1-0.5,0.2-1.2,0.3-2.1c0.1-0.8,0.3-1.7,0.5-2.5s0.3-1.5,0.5-2l4.1-14.5H570.1 M570.1,417.9h-8.8
				c-0.3,0-0.6,0.2-0.7,0.5l-4.1,14.5c-0.2,0.5-0.3,1.2-0.5,2.1c0,0.2-0.1,0.4-0.1,0.6c0-0.2-0.1-0.4-0.1-0.7
				c-0.2-0.9-0.4-1.6-0.5-2.1l-4-14.4c-0.1-0.3-0.4-0.5-0.7-0.5h-8.9c-0.2,0-0.4,0.1-0.6,0.3c-0.1,0.2-0.2,0.4-0.1,0.6l9.5,28.5
				c0.1,0.3,0.4,0.5,0.7,0.5h9.3c0.3,0,0.6-0.2,0.7-0.5l9.6-28.5c0.1-0.2,0-0.5-0.1-0.6C570.5,418.1,570.3,417.9,570.1,417.9
				L570.1,417.9z"/>
		</g>
	</g>
	<g id="ombrage_00000004524102070187513300000013069217449391104387_" class="st1">
		<path class="st17" d="M469.1,306.2c5,1.9,13.2,3.4,19.5,4.3c-5.8,0.7-13.4,1.7-19.4,3l-0.9,0.2v77h-29.2V282l29.2-85.4v25.9
			l0.7,0.2c5.8,1.9,15.7,3.1,24.3,3.8c-7.8,0.7-16.9,1.8-24.1,3.5l-0.9,0.2v75.6L469.1,306.2z"/>
		<path class="st17" d="M316.3,390l0.2,0.7h-29.3L287,390l-37.4-109.3V195l26.8,78.2l0.1,0.5l0.5,0.1c3.5,1.1,7.5,2.1,11,2.7
			c-2.8,0.2-5.9,0.6-8.9,1l-1.3,0.2l0.4,1.2l24,70.1l0.1,0.6l0.6,0.1c6.5,1.5,15.6,2.8,23.5,3.6c-6.5,0.3-14.1,0.8-20.9,1.5
			l-1.3,0.1l0.4,1.3L316.3,390z"/>
		<path class="st17" d="M448.3,27.2l-0.3,0.7L360.4,260l-8.9-23.1c14.9-20.9,30-50.7,16.3-72.8c-6.2-10.7-34.2-15.4-34.5-15.4
			l-10.3-1.6l10.5-0.5c17.4-0.7,44.5-2.6,48.3-5.1c14.7-9.6,25.8-38.2,25.9-57.2c0-6.7-1.5-11.5-4.2-13.2
			c-5.3-3.5-21.7-5.9-21.9-5.9l-9.5-1.4l9.5-0.7c8.5-0.6,31.5-2.9,35-5.6c9.5-7,11.9-29,11.9-29.2l0.1-0.9h19.7V27.2z"/>
		<path class="st17" d="M147.1,315.4v-82.1l0.9-0.2c6-1.2,13.7-2,20.1-2.4c-7.1-1.1-15.7-2.8-20.4-5.1l-0.6-0.3v-92.4l0.8-0.1
			c19.4-5.3,47.8-7.5,63.8-8.5c-17.3-2.4-48.5-7.3-63.9-13.5l-0.6-0.3V61.1l0.9-0.1c4.4-0.7,9.1-1.3,13-1.7
			c-4.1-0.6-8.8-1.5-13.1-2.5l-0.8-0.2V27.2h-18.7v1.1c0,0.2-0.1,25.3-10.3,35.4c-3.6,3.6-33,7.3-51.8,8.8l-8.8,0.7l8.7,1.4
			c0.5,0.1,47.8,7.8,56.9,19.7c8.9,11.4,9.4,49-5,62.3c-14.7,13.5-44.1,15.9-44.3,15.9l-10.1,0.8l10,1.4c0.3,0,30.3,4.1,44.5,14.7
			c8.3,6.2,13.4,15,14.7,25.4c1.8,14.1-3.5,29.8-14.9,44.3c-13.6,17.2-93.7,26.3-94.5,26.4l-10.3,1.1l10.3,1
			c0.9,0.1,79.9,7.8,94.7,20.1c8.2,6.8,8.7,18.1,8.3,24.1c-0.7,10.3-4.7,18.7-8.1,20.9c-7.6,4.8-33,9.8-33.3,9.9l-8.9,1.8l9,0.4
			c0.3,0,25,1,33.1,6.5c7.9,5.3,7.6,18,7.6,18.2v1.1h21.2v-60.4l0.9-0.1c16.6-2.6,39.7-4,55.7-4.6c-17.7-1.8-43.4-5-56-9.8
			L147.1,315.4z M96.4,361.3c-1.8,0.4-3.5,0.9-4.9,1.1C92.9,362.1,94.6,361.8,96.4,361.3c2.6-0.6,5.6-1.4,8.4-2.2
			C102,360,99.1,360.7,96.4,361.3z"/>
	</g>
	<path id="M_contour_00000053509453561576985870000003098666856368173213_" class="st18" d="M448.3,27.2l-0.3,0.7L360.4,260
		l-8.9-23.1l-80.9-209l-0.3-0.7H147.1v29.3l0.8,0.2c4.3,1,9,1.9,13.1,2.5c-3.8,0.4-8.5,1-13,1.7l-0.9,0.1v49.3l0.6,0.3
		c15.4,6.2,46.6,11.1,63.9,13.5c-16,0.9-44.3,3.2-63.8,8.5l-0.8,0.1v92.4l0.6,0.3c4.8,2.3,13.3,4.1,20.4,5.1
		c-6.4,0.4-14.2,1.2-20.1,2.4l-0.9,0.2v82.1l0.7,0.3c12.5,4.8,38.3,8,56,9.8c-16,0.6-39.2,2-55.7,4.6l-0.9,0.1v60.4h102.6V195
		l26.8,78.2l0.1,0.5l0.5,0.1c3.5,1.1,7.5,2.1,11,2.7c-2.8,0.2-5.9,0.6-8.9,1l-1.3,0.2l0.4,1.2l24,70.1l0.1,0.6l0.6,0.1
		c6.5,1.5,15.6,2.8,23.5,3.6c-6.5,0.3-14.1,0.8-20.9,1.5l-1.3,0.1l0.4,1.3l11.5,33.5l0.2,0.7H402l0.2-0.7l37-107.7l29.2-85.4v25.9
		l0.7,0.2c5.8,1.9,15.7,3.1,24.3,3.8c-7.8,0.7-16.9,1.8-24.1,3.5l-0.9,0.2v75.6l0.7,0.3c5,1.9,13.2,3.4,19.5,4.3
		c-5.8,0.7-13.4,1.7-19.4,3l-0.9,0.2v77h102.6V27.2H448.3z M570,389.6H469.5v-75c11.3-2.5,28.1-3.8,28.1-3.8s-19.3-2.3-28.1-5.6v-74
		c15.9-3.8,40.3-4.5,40.3-4.5s-28.9-1.3-40.3-4.9v-31.5l-30.3,88.6l-37.9,110.8h-84.1l-11.5-33.5c16.8-1.8,38.1-2.1,38.1-2.1
		s-26.2-1.8-40.6-5.2l-24-70.1c9-1.4,18.9-1.6,18.9-1.6s-12.2-1.4-20.8-4.2l-28.8-84.3v201H148.2v-58.4c27.9-4.5,74-5.2,74-5.2
		s-54.2-3.7-74-11.3v-80.6c12.3-2.6,32.2-3,32.2-3s-23.3-2.2-32.2-6.5v-90.9c28.4-7.6,75.6-9,75.6-9s-54.1-6.3-75.6-15V62
		c10.4-1.7,21.9-2.6,21.9-2.6s-12.5-1.4-21.9-3.7V28.3h121.4L350.7,238l9.7,25L449,28.3h121V389.6z"/>
	<path id="M_blanc_00000044155406859928561050000016978887723396056762_" class="st4" d="M570,28.3v361.3H469.5v-75
		c11.3-2.5,28.1-3.8,28.1-3.8s-19.3-2.3-28.1-5.6v-74c15.9-3.8,40.3-4.5,40.3-4.5s-28.9-1.3-40.3-4.9v-31.5l-68.1,199.4h-84.1
		l-11.5-33.5c16.8-1.8,38.1-2.1,38.1-2.1s-26.2-1.8-40.6-5.2l-24-70.1c9-1.4,18.9-1.6,18.9-1.6s-12.2-1.4-20.8-4.2l-28.8-84.3v201
		H148.2v-58.4c27.9-4.5,74-5.2,74-5.2s-54.2-3.7-74-11.3v-80.6c12.3-2.6,32.2-3,32.2-3s-23.3-2.2-32.2-6.5v-90.9
		c28.4-7.6,75.6-9,75.6-9s-54.1-6.3-75.6-15V62c10.4-1.7,21.9-2.6,21.9-2.6s-12.5-1.4-21.9-3.7V28.3h121.4L360.4,263L449,28.3H570z"
		/>
</g>
</svg>
